<?xml version="1.0" encoding="UTF-8" standalone="no"?>
<!-- Created with Inkscape (http://www.inkscape.org/) -->

<svg
   width="274.85486mm"
   height="225.8801mm"
   viewBox="0 0 274.85486 225.8801"
   version="1.1"
   id="svg1"
   xml:space="preserve"
   inkscape:version="1.4.4 (dcaf3e7, 2026-05-05)"
   sodipodi:docname="logo-mps.svg"
   xmlns:inkscape="http://www.inkscape.org/namespaces/inkscape"
   xmlns:sodipodi="http://sodipodi.sourceforge.net/DTD/sodipodi-0.dtd"
   xmlns="http://www.w3.org/2000/svg"
   xmlns:svg="http://www.w3.org/2000/svg"><sodipodi:namedview
     id="namedview1"
     pagecolor="#ffffff"
     bordercolor="#000000"
     borderopacity="0.25"
     inkscape:showpageshadow="2"
     inkscape:pageopacity="0.0"
     inkscape:pagecheckerboard="0"
     inkscape:deskcolor="#d1d1d1"
     inkscape:document-units="mm"
     inkscape:zoom="0.52739754"
     inkscape:cx="332.76605"
     inkscape:cy="469.28546"
     inkscape:window-width="1440"
     inkscape:window-height="842"
     inkscape:window-x="0"
     inkscape:window-y="175"
     inkscape:window-maximized="0"
     inkscape:current-layer="g1" /><defs
     id="defs1" /><g
     inkscape:label="Capa 1"
     inkscape:groupmode="layer"
     id="layer1"
     transform="translate(-1035.3478,720.10538)"><g
       id="g1"
       transform="translate(99.998511,-3.3754772)"><path
         style="display:none"
         d="m 882.12085,-593.98958 v -143.66875 h 191.55835 191.5583 v 143.66875 143.66875 H 1073.6792 882.12085 Z"
         id="path4" /><path
         style="fill:#f5b40c"
         d="m 1002.3078,-469.81064 c -0.2205,-0.089 -0.3307,-0.75278 -0.3307,-1.99226 0,-1.84411 -0.016,-1.88483 -1.98437,-5.15146 -1.09141,-1.81096 -1.98438,-3.41188 -1.98438,-3.5576 0,-0.15101 0.54048,-0.23027 1.25677,-0.1843 l 1.25678,0.0806 1.2543,2.11666 c 0.6899,1.16417 1.4023,2.11667 1.5831,2.11667 0.1808,0 0.9261,-0.98143 1.6561,-2.18095 1.3269,-2.1802 1.3277,-2.18095 2.4518,-2.18281 0.6185,-0.001 1.1245,0.10736 1.1245,0.24086 0,0.24666 -1.6207,3.05446 -3.1351,5.43147 -0.7367,1.15644 -0.8337,1.52997 -0.8337,3.21284 0,1.49237 -0.09,1.93901 -0.4185,2.06487 -0.4841,0.18577 -1.4178,0.17857 -1.8966,-0.0146 z m 17.1341,-0.30885 c -1.332,-0.51039 -1.5721,-1.01674 -0.8733,-1.84153 l 0.4741,-0.55959 1.6615,0.5561 c 1.4178,0.47456 1.8114,0.51116 2.6846,0.24956 2.105,-0.63068 1.5044,-1.84948 -1.2526,-2.54183 -3.2301,-0.81116 -4.3196,-2.01289 -3.7483,-4.13448 0.3187,-1.18364 1.2295,-1.97652 2.7399,-2.38518 1.2611,-0.34121 3.666,-0.18159 4.7441,0.31487 0.6185,0.28482 0.7156,0.45665 0.5766,1.02027 -0.2505,1.01534 -0.5256,1.17288 -1.4721,0.84292 -0.4693,-0.1636 -1.4124,-0.29745 -2.0957,-0.29745 -2.4213,0 -2.767,1.7933 -0.46,2.38686 3.8317,0.98587 4.6918,1.63542 4.6918,3.54307 0,1.34478 -0.5124,2.11786 -1.859,2.80486 -1.3106,0.6686 -4.1226,0.6887 -5.8116,0.0416 z m 14.5545,-0.0654 c -0.6522,-0.29585 -1.409,-0.73972 -1.6818,-0.98638 -1.5632,-1.41366 -2.023,-4.62076 -0.9732,-6.7893 1.3529,-2.79478 5.3271,-3.8511 8.4711,-2.25159 3.3549,1.70681 3.9491,6.3836 1.1487,9.04141 -1.6725,1.58743 -4.6953,2.01529 -6.9648,0.98586 z m 5.2044,-2.71982 c 0.7361,-0.80325 0.8761,-1.15788 0.8753,-2.21687 0,-1.58707 -0.7571,-2.88201 -1.9807,-3.39325 -1.209,-0.50518 -1.9422,-0.48036 -3.0291,0.10251 -1.8656,1.00056 -2.3575,3.53575 -1.0439,5.38053 0.7358,1.0333 1.4031,1.29596 2.9956,1.17914 1.1023,-0.0809 1.4435,-0.24532 2.1828,-1.05206 z m 8.0466,2.90449 c -0.2101,-0.25319 -0.2808,-1.93353 -0.2308,-5.49011 l 0.072,-5.12524 h 1.1906 1.1906 l 0.073,4.22204 c 0.051,2.9714 0.169,4.28297 0.3968,4.42772 0.1781,0.11312 1.4251,0.2075 2.7712,0.20973 l 2.4474,0.004 v 0.89773 c 0,0.57454 -0.1507,0.95555 -0.4186,1.05834 -0.2301,0.0883 -1.942,0.1606 -3.804,0.1606 -2.5546,0 -3.4599,-0.0896 -3.6884,-0.36486 z m 13.9515,-0.1714 c -0.534,-0.28208 -1.2483,-0.90189 -1.5875,-1.37737 -0.5724,-0.80252 -0.6226,-1.16324 -0.7009,-5.03169 l -0.084,-4.16718 h 1.2088 1.2089 v 3.10885 c 0,3.50817 0.2864,4.89417 1.1261,5.4823 0.8636,0.60494 2.1662,0.50461 3.0249,-0.23299 0.7353,-0.63156 0.7436,-0.67384 0.8747,-4.42052 0.1318,-3.77064 0.1344,-3.78337 0.7937,-3.94079 0.3638,-0.0869 0.9397,-0.10582 1.2798,-0.0421 l 0.6184,0.1158 -0.089,3.99964 c -0.1044,4.68224 -0.3858,5.4595 -2.3341,6.44703 -1.5198,0.77033 -3.9434,0.79713 -5.3406,0.0591 z m 15.2663,0.11442 c -2.188,-0.80097 -3.3813,-2.65719 -3.3813,-5.25943 0,-1.92104 0.422,-2.85736 1.8823,-4.17674 2.0832,-1.88196 5.6803,-2.03831 7.6422,-0.33217 0.5864,0.5099 0.6731,0.7229 0.4458,1.09448 -0.5633,0.92071 -1.0392,1.00553 -2.2779,0.40593 -1.4051,-0.68024 -2.0894,-0.71182 -3.2713,-0.15098 -1.0775,0.51131 -1.644,1.32845 -1.8608,2.68432 -0.4785,2.99266 2.7766,5.09898 5.4043,3.49697 0.8286,-0.50515 0.93,-0.5127 1.5376,-0.11458 0.9634,0.63125 0.7138,1.4235 -0.6803,2.1589 -1.3716,0.72357 -3.7603,0.80843 -5.4406,0.1933 z m 11.4133,0.24545 c -0.097,-0.097 -0.1764,-2.58442 -0.1764,-5.52757 v -5.35118 l 0.6404,-0.16074 c 0.6651,-0.16691 1.4971,0.0325 1.761,0.42207 0.2886,0.42609 0.268,9.72619 -0.023,10.26943 -0.2767,0.517 -1.7936,0.75669 -2.2023,0.34799 z m 10.2746,-0.14285 c -2.2332,-0.78062 -3.5718,-2.77783 -3.5718,-5.32905 0,-1.95868 0.4663,-3.02603 1.8331,-4.19599 2.5206,-2.15756 6.1139,-2.02504 8.5222,0.31428 1.0104,0.98137 1.2844,1.45718 1.5292,2.6552 0.5427,2.65658 -0.5766,5.01163 -2.9425,6.19057 -1.4914,0.74322 -3.8328,0.90236 -5.3702,0.36499 z m 4.1097,-2.19878 c 1.2701,-0.6568 2.013,-2.58305 1.5793,-4.09522 -0.9796,-3.41554 -5.6929,-3.42569 -6.6115,-0.0142 -0.8242,3.06062 2.2329,5.55706 5.0322,4.10946 z m 8.8996,2.18649 c -0.4058,-0.29671 -0.4459,-0.87315 -0.3813,-5.4901 l 0.072,-5.15858 1.0717,-0.0788 c 1.0444,-0.0768 1.1156,-0.0261 2.7892,1.98437 0.9447,1.13474 2.0541,2.50964 2.4655,3.05535 0.4113,0.5457 0.8528,0.99218 0.9811,0.99218 0.1282,0 0.235,-1.22039 0.2372,-2.71198 0,-1.49159 0.1037,-2.86904 0.2254,-3.06101 0.1387,-0.21871 0.6064,-0.31751 1.2527,-0.26459 l 1.0314,0.0845 0.072,5.12524 c 0.077,5.49685 0,5.85497 -1.2177,5.85497 -0.707,0 -1.31,-0.58753 -4.3221,-4.21159 -0.7763,-0.93392 -1.5602,-1.74751 -1.7421,-1.80798 -0.2504,-0.0832 -0.3307,0.55725 -0.3307,2.63731 0,1.78398 -0.1113,2.85858 -0.3175,3.06476 -0.4123,0.41224 -1.313,0.40555 -1.8868,-0.014 z m 14.9309,-0.0333 c -0.2102,-0.25319 -0.2808,-1.93353 -0.2309,-5.49011 l 0.072,-5.12524 h 4.101 4.1011 l 0.082,0.85082 c 0.099,1.02526 -0.1207,1.10305 -3.3895,1.19949 l -2.249,0.0663 v 0.92345 c 0,0.81194 0.096,0.94394 0.7938,1.09317 0.4365,0.0934 1.524,0.18382 2.4165,0.20104 1.4358,0.0277 1.6403,0.0983 1.7749,0.61285 0.2603,0.9956 -0.247,1.24545 -2.6942,1.32673 l -2.291,0.0761 v 1.19062 1.19063 l 2.9104,0.13229 2.9105,0.13229 0.087,0.76504 c 0.05,0.43454 -0.065,0.86142 -0.2646,0.98814 -0.1935,0.1227 -2.034,0.22492 -4.0898,0.22714 -2.8579,0.003 -3.8092,-0.0818 -4.0407,-0.3608 z m 13.7317,0.0526 c -1.5819,-0.45195 -1.989,-1.15413 -1.2528,-2.16089 0.313,-0.42805 0.4114,-0.42989 1.5213,-0.0284 2.377,0.85981 4.6258,0.4772 4.4406,-0.75553 -0.098,-0.65156 -0.3838,-0.80403 -2.831,-1.50957 -1.3206,-0.38071 -2.2146,-0.82081 -2.745,-1.35118 -0.7063,-0.70627 -0.7723,-0.9127 -0.6473,-2.02212 0.168,-1.49052 1.1662,-2.52184 2.8929,-2.98895 1.4039,-0.37978 3.9802,-0.17375 4.8355,0.3867 0.5735,0.37572 0.6097,0.50302 0.3531,1.23914 -0.2485,0.71278 -0.3769,0.79782 -0.9792,0.64823 -0.3813,-0.0947 -1.3566,-0.23745 -2.1674,-0.31724 -1.1637,-0.11453 -1.5675,-0.0516 -1.9182,0.29908 -0.8949,0.89488 -0.2267,1.74536 1.6725,2.12895 3.5595,0.71889 5.0202,2.60302 3.8189,4.92592 -0.8085,1.56352 -4.2206,2.29818 -6.9939,1.50586 z m -204.6797,-5.1151 c -0.3844,-1.53157 -1.82625,-1.45177 26.23176,-1.45177 23.05229,0 25.78907,0.0435 26.16135,0.41577 0.45599,0.45599 0.4957,0.65558 0.25517,1.28238 -0.14494,0.37773 -2.71021,0.41852 -26.321,0.41852 h -26.1604 z m 222.8478,0.48851 c -0.3469,-0.34687 -0.1737,-1.62014 0.2421,-1.77968 0.547,-0.2099 51.5327,-0.2099 52.0796,0 0.2679,0.10278 0.4186,0.48379 0.4186,1.05833 v 0.89774 h -26.282 c -14.4551,0 -26.3613,-0.0794 -26.4583,-0.17639 z m -222.01064,-16.37897 c -0.34839,-0.34839 -0.41578,-1.21924 -0.41578,-5.37339 0,-5.60557 0.0949,-5.95026 1.59918,-5.80718 0.8613,0.0819 1.0241,0.27071 2.80515,3.25282 1.03993,1.74122 2.00448,3.20375 2.14343,3.25007 0.13896,0.0463 1.10114,-1.33479 2.13819,-3.06913 1.87615,-3.13764 2.20212,-3.47908 3.32132,-3.47908 1.14577,0 1.2219,0.35656 1.2219,5.72256 0,5.47198 -0.10764,5.92419 -1.40796,5.91505 -1.20077,-0.008 -1.36301,-0.35686 -1.50246,-3.22662 l -0.13229,-2.72245 -1.53374,2.33188 c -1.95611,2.97406 -2.17109,2.97139 -4.1548,-0.0515 l -1.45521,-2.21753 -0.13229,2.69103 c -0.13942,2.83604 -0.30434,3.18677 -1.50246,3.19519 -0.31702,0.002 -0.76351,-0.18305 -0.99218,-0.41172 z m 19.82485,-0.0612 c -2.32835,-1.09698 -3.79857,-3.68555 -3.46704,-6.10431 0.40225,-2.93469 2.57504,-4.83794 5.7264,-5.016 2.21087,-0.12493 3.44339,0.26035 4.82713,1.50893 1.36112,1.22818 1.77705,2.24901 1.77705,4.36144 0,1.47652 -0.11233,1.86602 -0.8599,2.9816 -1.17759,1.7573 -2.65961,2.53698 -5.06793,2.66622 -1.44449,0.0775 -2.12141,-0.0142 -2.93571,-0.39788 z m 4.37428,-2.3056 c 0.98195,-0.50779 1.66391,-1.80633 1.66567,-3.17167 0.002,-1.34131 -0.42513,-2.13916 -1.49278,-2.79015 -2.15572,-1.31444 -4.85406,-0.0389 -5.13188,2.42581 -0.32756,2.90619 2.4067,4.85585 4.95899,3.53601 z m 8.51864,2.56109 c -0.25826,-0.16392 -0.31962,-1.49749 -0.26458,-5.75063 l 0.0717,-5.53723 0.88884,-0.0851 c 1.0696,-0.10237 1.41577,0.1927 4.21264,3.5908 1.10791,1.34606 2.10995,2.44739 2.22676,2.44739 0.11681,0 0.21238,-1.22634 0.21238,-2.72521 0,-3.00387 0.15432,-3.3602 1.45521,-3.3602 1.41125,0 1.45521,0.1776 1.45521,5.87942 v 5.24442 l -0.68609,0.3126 c -1.01359,0.46183 -1.71091,-0.0426 -4.29081,-3.10398 -1.22546,-1.45416 -2.33339,-2.68361 -2.46207,-2.73212 -0.24836,-0.0936 -0.3333,1.22461 -0.24067,3.73529 0.033,0.89477 -0.0772,1.6915 -0.26539,1.91823 -0.345,0.41571 -1.75985,0.51742 -2.31309,0.16629 z m 17.32413,-0.10922 c -0.37708,-0.28121 -0.45397,-0.96451 -0.51359,-4.56406 l -0.0701,-4.23333 -1.5875,-0.13229 -1.5875,-0.1323 v -1.05833 -1.05833 h 4.89479 4.8948 v 1.05833 1.05833 l -1.7198,0.1323 -1.71979,0.13229 -0.073,4.35422 c -0.0516,3.07728 -0.16796,4.41457 -0.39688,4.56001 -0.49547,0.31479 -1.62619,0.25252 -2.12144,-0.11684 z m 7.66246,0.15434 c -0.097,-0.097 -0.17639,-0.35474 -0.17639,-0.57272 0,-0.52081 4.21108,-9.83066 4.71753,-10.42953 0.40409,-0.47783 2.01234,-0.63391 2.61094,-0.25339 0.1744,0.11084 0.6695,0.97222 1.1004,1.91417 2.5583,5.59344 3.7691,8.52061 3.6919,8.92559 -0.096,0.50569 -0.9801,0.72312 -1.9498,0.47973 -0.4145,-0.10403 -0.7991,-0.55428 -1.1488,-1.34484 l -0.5257,-1.18845 -2.19773,0.004 c -1.20873,0.002 -2.32991,0.0915 -2.49151,0.19844 -0.16159,0.10691 -0.50563,0.6111 -0.76452,1.12043 -0.25889,0.50932 -0.60292,1.01351 -0.76452,1.12042 -0.36855,0.24384 -1.86547,0.26243 -2.1018,0.0261 z m 7.23198,-4.94935 c 0,-0.56826 -1.05558,-2.81176 -1.32295,-2.81176 -0.26737,0 -1.32292,2.2435 -1.32292,2.81176 0,0.2595 0.37782,0.36324 1.32292,0.36324 0.94505,0 1.32295,-0.10374 1.32295,-0.36324 z m 8.2116,4.63863 c -1.2898,-0.69173 -1.4983,-1.13048 -0.9412,-1.98079 0.5172,-0.78922 1.0765,-0.88087 1.8421,-0.30181 0.7955,0.6017 1.9222,0.48848 2.4003,-0.24122 0.3213,-0.49025 0.3959,-1.23718 0.3369,-3.37343 l -0.076,-2.74376 -1.8249,-0.13229 c -2.0989,-0.15216 -2.5901,-0.55558 -2.069,-1.69925 0.3078,-0.67563 0.3393,-0.682 3.3656,-0.682 2.9254,0 3.0644,0.0252 3.2786,0.59531 0.3881,1.03286 0.1945,8.16219 -0.2458,9.0521 -0.928,1.87564 -3.9704,2.63145 -6.0668,1.50714 z m 10.5076,0.20134 c -0.4163,-0.2425 -0.463,-0.79863 -0.463,-5.51581 0,-4.14769 0.077,-5.30982 0.3666,-5.55035 0.2493,-0.20692 1.6245,-0.28075 4.2995,-0.23083 l 3.9329,0.0734 v 1.05833 1.05833 l -2.7781,0.1323 -2.7782,0.13229 -0.082,0.99219 -0.082,0.99218 h 2.3443 c 2.4683,0 2.9793,0.20423 2.9793,1.19063 0,0.98633 -0.5111,1.19062 -2.9785,1.19062 h -2.3436 l 0.081,1.12448 0.081,1.12448 2.9104,0.13229 2.9105,0.13229 0.089,0.78071 c 0.1467,1.28933 -0.4002,1.46926 -4.4389,1.46021 -1.9731,-0.004 -3.7958,-0.12941 -4.0505,-0.27773 z m 12.8985,-0.18883 c -1.0661,-0.36378 -1.338,-0.57992 -1.4003,-1.11314 -0.043,-0.36393 0.093,-0.895 0.3017,-1.18015 0.3306,-0.45202 0.4702,-0.477 1.0893,-0.19491 1.4204,0.64719 3.0756,0.87936 4.0281,0.56501 0.7646,-0.25232 0.8935,-0.40802 0.8249,-0.99628 -0.086,-0.737 -0.083,-0.73575 -2.9732,-1.5163 -1.0807,-0.29189 -1.853,-0.70769 -2.481,-1.33575 -0.8343,-0.8343 -0.9004,-1.01406 -0.7767,-2.11187 0.2477,-2.19709 1.8863,-3.29369 4.8844,-3.26874 3.2113,0.0267 4.5048,0.92323 3.3283,2.30685 -0.4662,0.54828 -0.5072,0.55079 -2.0871,0.12757 -1.3755,-0.36846 -1.7361,-0.38015 -2.4613,-0.0798 -0.6881,0.28502 -0.8345,0.48169 -0.7697,1.03388 0.072,0.60984 0.3008,0.74306 2.1684,1.26059 2.6079,0.72263 3.2829,1.08113 3.7551,1.99417 0.9441,1.82581 -0.1466,4.13308 -2.2272,4.71095 -1.4342,0.39835 -3.7022,0.31026 -5.2037,-0.20212 z m 17.3963,0.29937 c -0.5218,-0.21055 -0.4701,-10.7568 0.055,-11.1925 0.6571,-0.54532 6.1263,-0.25953 7.4161,0.38752 1.5994,0.80235 2.3256,2.05776 2.1872,3.78129 -0.2031,2.53041 -1.7828,3.75366 -5.1244,3.96811 l -1.9541,0.1254 v 1.23521 c 0,0.67936 -0.1429,1.37808 -0.3175,1.5527 -0.3153,0.31531 -1.6286,0.39791 -2.2622,0.14227 z m 6.1159,-5.92939 c 0.8529,-0.67092 0.9293,-1.86528 0.168,-2.62663 -0.4116,-0.41157 -0.882,-0.52916 -2.1167,-0.52916 h -1.5875 v 1.85208 1.85208 h 1.4195 c 1.0355,0 1.6082,-0.14836 2.1167,-0.54837 z m 7.1001,5.78712 c -0.2261,-0.22607 -0.3175,-1.86272 -0.3175,-5.6835 v -5.366 l 0.6796,-0.17057 c 1.2606,-0.3164 6.271,0.0377 7.1684,0.50656 2.4383,1.2741 2.9235,4.38636 1.0133,6.5007 l -0.8984,0.99437 1.0851,1.52953 c 0.8763,1.23531 1.0139,1.57748 0.7149,1.77883 -0.5858,0.39444 -2.4333,0.059 -2.8811,-0.52309 -1.9077,-2.47995 -1.8406,-2.42433 -2.9244,-2.42433 h -1.047 v 1.31361 c 0,1.02794 -0.1113,1.37317 -0.5118,1.5875 -0.6867,0.36749 -1.6911,0.34645 -2.0811,-0.0436 z m 6.1291,-5.78712 c 0.6882,-0.54138 0.9234,-1.61412 0.4946,-2.25629 -0.3799,-0.56894 -1.3686,-0.8995 -2.6905,-0.8995 h -1.3403 v 1.85208 1.85208 h 1.4195 c 1.0355,0 1.6082,-0.14836 2.1167,-0.54837 z m 10.0898,5.61858 c -2.0142,-0.96621 -3.5736,-3.20587 -3.5704,-5.12785 0.01,-3.56768 2.5492,-6.01929 6.2501,-6.02519 3.9148,-0.006 6.406,2.56881 6.1332,6.33966 -0.1422,1.96629 -1.1412,3.53943 -2.8462,4.48189 -1.6008,0.88487 -4.4796,1.04481 -5.9667,0.33149 z m 4.3551,-2.32794 c 2.1324,-1.25967 2.1442,-4.94623 0.019,-6.04508 -1.6458,-0.85109 -3.8787,-0.28376 -4.6344,1.17749 -0.8316,1.6082 -0.2854,3.96373 1.1215,4.83603 0.9256,0.57389 2.5508,0.58856 3.4937,0.0316 z m 8.1221,2.42106 c -0.327,-0.32703 -0.3781,-1.25738 -0.3044,-5.54772 0.049,-2.83514 0.1645,-5.2777 0.2574,-5.42791 0.1037,-0.16788 1.6794,-0.27311 4.0895,-0.27311 4.2941,0 4.6274,0.11231 4.4677,1.50535 l -0.085,0.7436 -2.8173,0.0748 -2.8173,0.0748 -0.099,1.03335 c -0.054,0.56834 -0.056,1.15975 0,1.31424 0.056,0.1671 0.969,0.28253 2.2544,0.28494 1.1884,0.002 2.3185,0.10401 2.5111,0.22618 0.2108,0.1336 0.3162,0.58019 0.2646,1.12043 l -0.086,0.8983 -2.3726,0.0773 c -1.488,0.0485 -2.4482,0.19642 -2.5756,0.39688 -0.1117,0.17577 -0.2049,1.05099 -0.2072,1.94493 0,1.23542 -0.1044,1.66386 -0.4225,1.78593 -0.7268,0.27887 -1.6461,0.17485 -2.0533,-0.23232 z m 11.9968,0.13362 c -0.3366,-0.21306 -0.3829,-1.06611 -0.3044,-5.61834 0.051,-2.95193 0.1471,-5.45645 0.214,-5.56559 0.2126,-0.34685 7.8845,-0.23599 8.2396,0.11907 0.4202,0.42029 0.4046,1.39742 -0.028,1.75657 -0.19,0.15773 -1.5295,0.32113 -2.9766,0.36312 l -2.631,0.0763 v 0.92604 0.92604 l 1.9844,0.0669 c 2.9801,0.10054 3.175,0.17763 3.175,1.25597 0,1.07834 -0.1949,1.15543 -3.175,1.25597 l -1.9844,0.0669 v 1.05834 1.05833 l 2.9104,0.13229 2.9105,0.13229 0.086,0.8983 c 0.052,0.54024 -0.054,0.98684 -0.2646,1.12043 -0.4836,0.30661 -7.6656,0.28101 -8.1555,-0.0291 z m 13.7583,0.0882 c -2.3978,-0.78155 -2.8213,-1.34343 -1.8846,-2.50024 0.4961,-0.61264 0.4978,-0.61279 1.5655,-0.13136 1.2644,0.57018 3.5416,0.66642 4.1341,0.17471 1.0165,-0.84359 0.2259,-1.53368 -2.5994,-2.26911 -2.473,-0.64372 -3.4645,-1.52989 -3.4645,-3.09645 0,-2.32497 1.7797,-3.64386 4.8948,-3.62734 3.0827,0.0163 4.2664,0.80151 3.34,2.21542 -0.4032,0.61537 -0.4242,0.6179 -1.7915,0.21707 -1.5668,-0.45927 -3.027,-0.24316 -3.5025,0.51836 -0.4417,0.70742 0.275,1.22294 2.494,1.79369 2.9363,0.7553 4.1079,1.87099 3.8468,3.66322 -0.3051,2.09473 -2.0285,3.21178 -4.916,3.18646 -0.9459,-0.008 -1.8984,-0.0733 -2.1167,-0.14443 z m 10.5172,-0.11464 c -0.4162,-0.24244 -0.463,-0.79765 -0.463,-5.49529 0,-5.61462 0.057,-5.8606 1.3542,-5.8606 1.6033,0 1.5562,-0.17612 1.5562,5.82083 0,4.77087 -0.055,5.52092 -0.4185,5.66023 -0.6161,0.23642 -1.5019,0.18176 -2.0289,-0.12517 z m 8.7656,-0.45353 c -2.0445,-1.06804 -3.0109,-2.69908 -3.0109,-5.08153 0,-2.41713 0.9709,-4.05174 3.0253,-5.09323 3.3003,-1.67315 7.3366,-0.51242 8.9513,2.57419 0.6209,1.18678 0.5459,3.7232 -0.15,5.07313 -1.5713,3.04826 -5.6051,4.20471 -8.8157,2.52744 z m 4.9623,-2.1497 c 0.5413,-0.33006 0.9944,-0.93777 1.3043,-1.74915 0.4271,-1.1182 0.4368,-1.35264 0.097,-2.32888 -0.9933,-2.8505 -4.8159,-3.1161 -6.2044,-0.43108 -1.5867,3.06827 1.8602,6.30386 4.8035,4.50911 z m 7.9207,2.47323 c -0.3492,-0.34915 -0.4158,-1.23106 -0.4158,-5.50333 0,-3.60422 0.093,-5.18013 0.3175,-5.40506 0.1746,-0.17463 0.7048,-0.3175 1.1781,-0.3175 0.7746,0 1.1153,0.30611 3.4145,3.06779 1.419,1.7045 2.6547,2.96701 2.7807,2.84099 0.1248,-0.12474 0.2611,-1.47548 0.3029,-3.00165 l 0.076,-2.77484 1.0271,-0.0842 c 0.5648,-0.0463 1.1395,0.0283 1.2769,0.1657 0.3553,0.3553 0.2963,10.94614 -0.062,11.16771 -0.1541,0.0952 -0.6785,0.10344 -1.1653,0.0182 -0.7191,-0.12588 -1.342,-0.68847 -3.3209,-2.99921 -1.3397,-1.56435 -2.5436,-2.84427 -2.6754,-2.84427 -0.1318,0 -0.2396,1.22634 -0.2396,2.7252 0,1.76683 -0.1116,2.83687 -0.3175,3.04271 -0.4495,0.44954 -1.6851,0.39376 -2.1771,-0.0983 z m 13.4087,0.24054 c -0.1819,-0.0734 -0.3307,-0.26763 -0.3307,-0.43163 0,-0.35966 4.4542,-10.23394 4.8285,-10.70407 0.1449,-0.18191 0.77,-0.33073 1.3892,-0.33073 0.6192,0 1.2432,0.14882 1.3868,0.33073 0.1435,0.1819 0.9179,1.81901 1.7208,3.63802 0.8029,1.81901 1.853,4.17975 2.3335,5.24609 0.9649,2.1416 0.8855,2.41491 -0.7038,2.42277 -0.809,0.004 -1.6946,-0.66157 -1.6946,-1.27355 0,-0.17044 -0.2381,-0.54802 -0.5292,-0.83906 -0.4402,-0.44018 -0.8819,-0.52917 -2.6269,-0.52917 -2.1452,0 -2.9293,0.32377 -2.9293,1.20952 0,0.99133 -1.6737,1.73341 -2.8443,1.26108 z m 7.1506,-4.74842 c 0.1763,-0.17634 -0.7586,-2.7321 -1.1437,-3.12633 -0.2896,-0.29649 -1.6882,2.62591 -1.445,3.01939 0.1774,0.28711 2.32,0.37563 2.5887,0.10694 z m 8.0629,4.63788 c -0.4162,-0.24244 -0.463,-0.79765 -0.463,-5.49529 0,-5.67414 0.047,-5.86356 1.442,-5.85655 1.4257,0.007 1.4492,0.0806 1.5278,4.76985 l 0.073,4.35422 2.6366,0.0764 c 2.6636,0.0772 3.0393,0.2204 3.0479,1.16146 0.01,1.07966 -0.6586,1.27606 -4.3143,1.26763 -1.9178,-0.004 -3.6952,-0.12941 -3.9499,-0.27773 z m 11.2316,-0.0317 c -0.408,-0.40804 -0.447,-10.05872 -0.044,-10.81239 0.2518,-0.4705 0.5889,-0.51177 4.1804,-0.51177 4.1145,0 4.5415,0.11389 4.5415,1.21114 0,0.94134 -0.5538,1.14572 -3.3221,1.22605 l -2.631,0.0763 v 0.92604 0.92604 l 1.9844,0.0669 c 2.9801,0.10054 3.175,0.17763 3.175,1.25597 0,1.07834 -0.1949,1.15543 -3.175,1.25597 l -1.9844,0.0669 v 1.05834 1.05833 l 2.9104,0.13229 2.9104,0.13229 0.086,0.8983 c 0.052,0.54024 -0.054,0.98684 -0.2646,1.12043 -0.5694,0.361 -7.9964,0.28354 -8.3672,-0.0873 z m 13.1763,-0.16636 c -1.29,-0.49304 -1.6042,-1.14206 -1.0523,-2.17326 0.2271,-0.42443 0.4484,-0.52194 0.8765,-0.38628 2.5473,0.8072 3.2193,0.91129 4.1921,0.64934 0.8188,-0.22047 1.0107,-0.3941 1.0107,-0.91412 0,-0.75668 -0.4356,-1.02291 -2.3283,-1.42274 -2.8306,-0.598 -4.0062,-1.58882 -4.0158,-3.38471 -0.01,-1.30427 0.9273,-2.59643 2.2884,-3.16514 1.7137,-0.71605 5.6903,-0.29666 6.2832,0.66267 0.2677,0.43319 -0.6137,1.95353 -1.0382,1.79066 -2.1501,-0.82509 -4.1523,-0.79427 -4.6154,0.071 -0.4232,0.79086 0.2155,1.26127 2.5559,1.88231 1.2739,0.33804 2.4458,0.8299 2.8335,1.18919 1.7857,1.65489 0.8938,4.52678 -1.672,5.38433 -1.3006,0.43468 -3.9395,0.34374 -5.3183,-0.18328 z m -267.75327,-22.78991 c -0.19109,-0.35707 -0.25608,-10.45743 -0.20774,-32.28885 0.0618,-27.89995 0.11867,-31.79979 0.46721,-32.02009 0.45168,-0.28549 19.73391,-0.32512 20.39735,-0.0419 0.23172,0.0989 2.30324,2.26344 4.60338,4.81005 6.35316,7.03395 19.11762,21.29165 20.88516,23.3284 0.8625,0.99386 1.76086,1.80702 1.99637,1.80702 0.2355,0 1.1967,-0.87399 2.13598,-1.9422 10.17945,-11.57657 24.86486,-27.79029 25.36366,-28.00327 0.524,-0.22372 19.6683,-0.27709 20.2433,-0.0564 0.3785,0.14523 0.4186,3.24447 0.4186,32.38315 0,29.13867 -0.04,32.23792 -0.4186,32.38315 -0.2301,0.0883 -4.4331,0.1606 -9.3398,0.1606 -6.5859,0 -9.0043,-0.0831 -9.2387,-0.3175 -0.2409,-0.24085 -0.3175,-4.74976 -0.3175,-18.67518 0,-10.32252 -0.1009,-18.31907 -0.2306,-18.26948 -0.1268,0.0485 -2.895,3.12928 -6.1515,6.84616 -3.2566,3.71689 -8.4809,9.63972 -11.6096,13.16185 l -5.68854,6.40389 -5.1848,10e-4 -5.1848,10e-4 -3.67874,-4.15635 c -2.02331,-2.28599 -7.22948,-8.20935 -11.56927,-13.16302 -4.33978,-4.95367 -8.00096,-9.04636 -8.13593,-9.09487 -0.14933,-0.0537 -0.24542,7.11669 -0.24542,18.31309 0,17.92202 -0.0133,18.40842 -0.51177,18.67517 -0.32402,0.17341 -3.81504,0.2739 -9.51569,0.2739 -8.67792,0 -9.01399,-0.0188 -9.28201,-0.51961 z m 107.06297,0.34322 c -0.097,-0.097 -0.1764,-9.13303 -0.1764,-20.08003 0,-17.90544 0.042,-19.91976 0.4185,-20.06423 0.2302,-0.0883 4.4423,-0.1606 9.3603,-0.1606 6.9846,0 9.0039,0.0748 9.2254,0.34176 0.156,0.18796 0.3194,1.17023 0.3632,2.18281 l 0.08,1.84105 21.6971,0.0677 c 24.5777,0.0767 22.9338,0.21665 24.1353,-2.05538 0.5281,-0.99852 0.6019,-1.52216 0.6019,-4.26626 0,-3.60524 -0.3791,-4.92358 -1.6837,-5.85413 l -0.8298,-0.5919 -31.6177,-0.13229 -31.6177,-0.13229 -0.07,-7.86533 -0.07,-7.86533 0.5993,-0.1497 c 0.3296,-0.0823 15.4225,-0.1097 33.5398,-0.0608 l 32.9407,0.0889 2.2489,0.59403 c 5.6151,1.48314 9.7335,4.69177 12.017,9.36233 1.7159,3.50975 1.8736,4.54044 1.8736,12.24592 0,7.81562 -0.1432,8.70506 -2.0235,12.56771 -2.008,4.12499 -6.1031,7.50052 -10.8691,8.95932 -3.1921,0.97707 -6.3194,1.09484 -29.0718,1.09484 h -21.9324 v 9.89357 c 0,8.77756 -0.047,9.91168 -0.4185,10.05417 -0.5727,0.21973 -18.4993,0.20461 -18.7197,-0.0158 z m 87.8408,-0.28272 c -0.1159,-0.18768 8.2725,-14.41364 8.8561,-15.01902 0.1649,-0.17111 9.4971,-0.31132 26.4144,-0.39687 l 26.1594,-0.13229 0.7168,-0.66146 c 2.0299,-1.87325 1.9088,-5.68742 -0.2305,-7.25724 -0.7372,-0.54099 -1.0254,-0.54977 -22.6218,-0.68938 -21.7581,-0.14065 -21.8856,-0.14461 -23.8312,-0.73902 -5.6308,-1.72027 -9.7207,-5.08189 -12.0432,-9.89867 -1.466,-3.04036 -1.9808,-4.93722 -2.1877,-8.06082 -0.578,-8.72843 4.2149,-16.78491 11.8615,-19.93811 3.9288,-1.6201 2.7658,-1.57093 37.1535,-1.57093 29.9259,0 31.3894,0.022 31.2724,0.46914 -0.067,0.25803 -1.5476,2.66905 -3.2892,5.35782 -1.7417,2.68876 -3.8512,5.96023 -4.688,7.26992 l -1.5214,2.38125 -25.3165,0.13229 c -24.6319,0.12871 -25.34,0.14644 -26.1821,0.65568 -1.7769,1.07447 -2.453,4.12698 -1.3801,6.23016 1.0818,2.12039 -0.7426,1.96069 24.1941,2.11777 24.9244,0.157 23.3611,0.0345 27.6609,2.16707 4.2476,2.10671 7.638,6.29834 9.2622,11.45119 0.748,2.37325 1.016,7.55478 0.5311,10.2683 -1.3923,7.79066 -6.1602,13.17338 -13.6177,15.37373 -1.8373,0.54211 -2.3342,0.55108 -34.4553,0.62208 -17.9252,0.0396 -32.6481,-0.02 -32.7177,-0.13259 z m -144.71642,-78.2887 c -0.10242,-0.10242 -0.18621,-8.7899 -0.18621,-19.30551 0,-17.85605 -0.0306,-19.1499 -0.46302,-19.5824 -0.59058,-0.59067 -0.57685,-2.44115 0.0245,-3.29965 0.39405,-0.56259 0.43855,-1.95922 0.43855,-13.76402 0,-11.35535 -0.0539,-13.18259 -0.39688,-13.46728 -0.50037,-0.41527 -0.50037,-2.0351 0,-2.91041 0.3043,-0.53232 0.37996,-2.22746 0.3875,-8.6825 0.006,-5.222 0.10914,-8.20745 0.29526,-8.55521 0.43847,-0.8193 1.90775,-1.34136 2.80983,-0.99839 1.73639,0.66018 1.66638,0.25184 1.67084,9.74429 0.002,4.74325 0.10145,8.77763 0.2205,8.96527 0.18056,0.28459 3.61627,2.43695 3.88999,2.43695 0.0808,0 20.28826,12.12135 27.97846,16.7827 l 3.3858,2.05224 11.8939,-2.98353 11.8939,-2.98353 v -8.96783 -8.96784 l 0.7734,-0.77339 c 0.4622,-0.46221 1.0531,-0.7734 1.4684,-0.7734 0.9919,0 2.182,0.68449 2.6099,1.50113 l 0.3671,0.70072 3.9441,-3.8129 c 4.9148,-4.75138 14.1676,-13.61334 23.5831,-22.58701 l 7.2061,-6.86785 v -8.22067 c 0,-9.12875 -0.01,-9.09155 1.7362,-9.66674 0.7298,-0.24086 1.1176,-0.23722 1.7295,0.0162 1.5571,0.64499 1.5614,0.67113 1.5614,9.54037 v 8.11052 l 4.8268,4.19988 c 2.6547,2.30994 6.3754,5.56153 8.2682,7.22577 1.8928,1.66424 8.5611,7.51011 14.8185,12.99082 6.2574,5.48071 12.5484,10.99492 13.9799,12.2538 1.4315,1.25888 2.7114,2.28887 2.8443,2.28887 0.1397,0 0.2415,-3.0575 0.2415,-7.25684 v -7.25684 l 0.6971,-0.54837 c 0.988,-0.77713 2.729,-0.74617 3.4882,0.062 l 0.5735,0.61041 v 41.04242 c 0,36.92711 -0.04,41.08403 -0.413,41.4574 -0.3749,0.37489 -7.3795,0.41507 -72.496,0.4159 -42.0304,5.4e-4 -72.08097,-0.0974 -72.08097,-0.23495 0,-0.12974 0.28344,-0.30702 0.62987,-0.39397 0.6573,-0.16497 9.8699,-1.12088 31.1201,-3.22907 6.9122,-0.68574 12.6647,-1.33206 12.7833,-1.43626 0.1185,-0.1042 -2.2032,-1.5902 -5.1594,-3.30223 -2.9562,-1.71203 -6.506,-3.77 -7.8885,-4.57327 -1.3824,-0.80327 -5.1329,-2.97509 -8.3344,-4.82626 -3.2014,-1.85118 -7.7258,-4.47036 -10.0541,-5.82041 -17.92817,-10.39536 -21.73957,-12.44635 -21.97325,-11.82429 -0.0661,0.17589 -0.14975,8.23746 -0.18594,17.9146 l -0.0658,17.59479 -2.12889,0.076 c -1.17089,0.0418 -2.21269,-0.008 -2.31511,-0.11024 z m 153.22802,-4.83605 c -0.049,-0.13205 -2.3128,-1.88823 -5.0318,-3.9026 -2.719,-2.01438 -12.5058,-9.34913 -21.7484,-16.29946 -9.2427,-6.95033 -16.9896,-12.70783 -17.2153,-12.79445 -0.3681,-0.14127 -0.4104,1.54459 -0.4104,16.36317 0,9.08637 0.079,16.60005 0.1764,16.69706 0.2759,0.2759 44.3309,0.21243 44.2295,-0.0637 z m -49.433,-2.53802 c 0,-1.53975 -0.105,-2.51354 -0.2711,-2.51354 -0.5329,0 -14.3972,4.5083 -14.654,4.76509 -0.1729,0.17294 2.3191,0.262 7.3316,0.262 h 7.5935 z m -19.4619,0.13196 c 3.3552,-0.99165 8.8984,-2.60072 12.3182,-3.57571 3.4197,-0.97499 6.426,-1.88311 6.6807,-2.01806 0.4314,-0.2286 0.463,-1.13842 0.463,-13.33291 0,-11.5821 -0.047,-13.08757 -0.4056,-13.08757 -0.4553,0 -9.0615,2.95987 -24.1636,8.3104 -5.5822,1.97772 -10.1959,3.59585 -10.2526,3.59585 -0.057,0 -0.1032,4.93282 -0.1032,10.96181 v 10.9618 l 0.5953,0.0845 c 0.3275,0.0465 2.434,0.0437 4.6813,-0.006 l 4.086,-0.0909 z m -20.5004,-11.97206 -0.01,-11.9724 -4.2892,-2.54156 c -2.3591,-1.39786 -7.623,-4.56508 -11.6976,-7.03827 -4.0745,-2.47319 -7.651,-4.62416 -7.9476,-4.77995 -0.5792,-0.30424 0.1153,-0.4661 -18.9076,4.40653 -11.24031,2.87917 -10.5833,2.69861 -10.5833,2.90844 0,0.23488 1.17854,0.93753 12.0385,7.17743 8.3903,4.82085 35.6219,20.59167 39.5553,22.90791 0.8003,0.47131 1.5445,0.86758 1.6536,0.8806 0.1091,0.013 0.1938,-5.36391 0.1882,-11.94873 z m 89.9675,-3.83646 -10e-4,-12.36927 -2.4464,-1.86697 c -1.3455,-1.02683 -4.4704,-3.43669 -6.9442,-5.35524 -3.7424,-2.90234 -15.0227,-11.59579 -31.6617,-24.40088 -1.6977,-1.3065 -3.2753,-2.44782 -3.5057,-2.53626 -0.3788,-0.14535 -0.4187,1.05595 -0.415,12.50136 0,6.96419 0.091,12.78721 0.1984,12.94005 0.1069,0.15283 3.4686,2.70721 7.4704,5.67638 7.8885,5.85288 33.0902,24.78961 35.4542,26.64043 0.8003,0.62664 1.5445,1.13941 1.6536,1.13951 0.1092,9e-5 0.198,-5.56601 0.1974,-12.36911 z m -73.1562,-13.6339 c 5.9663,-2.10889 13.5863,-4.78327 16.9333,-5.94307 l 6.0854,-2.10873 0.069,-12.47356 c 0.038,-6.86818 -0.034,-12.47355 -0.1595,-12.47355 -0.3191,0 -21.4723,9.637 -31.8577,14.51374 l -2.8443,1.3356 v 10.62702 c 0,9.99604 0.028,10.619 0.463,10.49195 0.2547,-0.0743 5.3446,-1.86052 11.311,-3.9694 z m -16.8011,-7.46662 c 0,-7.26603 -0.032,-7.8036 -0.463,-7.78188 -1.0708,0.054 -17.3687,4.36593 -17.448,4.61628 -0.048,0.15069 1.1349,1.01443 2.6282,1.91944 1.4933,0.905 5.394,3.30169 8.6683,5.32597 3.2742,2.02428 6.1019,3.69061 6.2838,3.70295 0.2576,0.0175 0.3307,-1.70301 0.3307,-7.78276 z m -50.93226,0.69057 c 16.11676,-4.14264 20.76976,-5.41943 20.76976,-5.69917 0,-0.16179 -5.4471,-3.56057 -12.1047,-7.55285 -6.6575,-3.99228 -12.62908,-7.60982 -13.27006,-8.03898 -0.64098,-0.42915 -1.41489,-0.80962 -1.71979,-0.84549 -0.30491,-0.0359 -0.8818,-0.14943 -1.28198,-0.25238 l -0.7276,-0.18719 v 12.15542 c 0,6.68548 0.0807,12.2361 0.1793,12.33472 0.0986,0.0986 0.3665,0.12144 0.59531,0.0507 0.22881,-0.0707 3.6307,-0.95487 7.55976,-1.9648 z m 140.89066,-8.06785 v -9.89083 l -6.9453,-6.06772 c -3.82,-3.33725 -10.4686,-9.15552 -14.7749,-12.92949 -4.3062,-3.77397 -10.3694,-9.06442 -13.4738,-11.75655 -3.1043,-2.69214 -6.4788,-5.63894 -7.4988,-6.54844 -1.02,-0.90951 -1.9517,-1.65365 -2.0705,-1.65365 -0.1187,0 -0.2159,5.51442 -0.2159,12.25427 v 12.25426 l 5.3578,4.10571 c 19.6033,15.02207 25.474,19.5469 31.814,24.52067 3.9278,3.08142 7.2914,5.60259 7.4745,5.60259 0.2615,0 0.3329,-2.12004 0.3329,-9.89082 z m -76.5547,-11.57414 c 4.3424,-2.05583 9.9194,-4.66166 12.3932,-5.79073 7.0163,-3.20226 13.1904,-6.06128 13.6261,-6.30983 0.3421,-0.19521 0.4063,-1.90896 0.4656,-12.43461 0.039,-6.91105 -0.032,-12.2082 -0.1642,-12.2082 -0.2435,0 -6.2853,5.69178 -21.2035,19.97539 -4.875,4.66755 -9.9054,9.48083 -11.1787,10.69616 l -2.3151,2.20971 v 3.8 c 0,2.10456 0.1074,3.79999 0.2406,3.79999 0.1324,0 3.7935,-1.68205 8.136,-3.73788 z"
         id="path3" /><path
         style="fill:#386293"
         d="m 935.98246,-490.95327 c -0.34839,-0.34839 -0.41578,-1.21924 -0.41578,-5.37339 0,-5.60557 0.0949,-5.95026 1.59918,-5.80718 0.8613,0.0819 1.0241,0.27071 2.80515,3.25282 1.03993,1.74122 2.00448,3.20375 2.14343,3.25007 0.13896,0.0463 1.10114,-1.33479 2.13819,-3.06913 1.87615,-3.13764 2.20212,-3.47908 3.32132,-3.47908 1.14577,0 1.2219,0.35656 1.2219,5.72256 0,5.47198 -0.10764,5.92419 -1.40796,5.91505 -1.20077,-0.008 -1.36301,-0.35686 -1.50246,-3.22662 l -0.13229,-2.72245 -1.53374,2.33188 c -1.95611,2.97406 -2.17109,2.97139 -4.1548,-0.0515 l -1.45521,-2.21753 -0.13229,2.69103 c -0.13942,2.83604 -0.30434,3.18677 -1.50246,3.19519 -0.31702,0.002 -0.76351,-0.18305 -0.99218,-0.41172 z m 19.82485,-0.0612 c -2.32835,-1.09698 -3.79857,-3.68555 -3.46704,-6.10431 0.40225,-2.93469 2.57504,-4.83794 5.7264,-5.016 2.21087,-0.12493 3.44339,0.26035 4.82713,1.50893 1.36112,1.22818 1.77705,2.24901 1.77705,4.36144 0,1.47652 -0.11233,1.86602 -0.8599,2.9816 -1.17759,1.7573 -2.65961,2.53698 -5.06793,2.66622 -1.44449,0.0775 -2.12141,-0.0142 -2.93571,-0.39788 z m 4.37428,-2.3056 c 0.98195,-0.50779 1.66391,-1.80633 1.66567,-3.17167 0.002,-1.34131 -0.42513,-2.13916 -1.49278,-2.79015 -2.15572,-1.31444 -4.85406,-0.0389 -5.13188,2.42581 -0.32756,2.90619 2.4067,4.85585 4.95899,3.53601 z m 8.51864,2.56109 c -0.25826,-0.16392 -0.31962,-1.49749 -0.26458,-5.75063 l 0.0717,-5.53723 0.88884,-0.0851 c 1.0696,-0.10237 1.41577,0.1927 4.21264,3.5908 1.10791,1.34606 2.10995,2.44739 2.22676,2.44739 0.11681,0 0.21238,-1.22634 0.21238,-2.72521 0,-3.00387 0.15432,-3.3602 1.45521,-3.3602 1.41125,0 1.45521,0.1776 1.45521,5.87942 v 5.24442 l -0.68609,0.3126 c -1.01359,0.46183 -1.71091,-0.0426 -4.29081,-3.10398 -1.22546,-1.45416 -2.33339,-2.68361 -2.46207,-2.73212 -0.24836,-0.0936 -0.3333,1.22461 -0.24067,3.73529 0.033,0.89477 -0.0772,1.6915 -0.26539,1.91823 -0.345,0.41571 -1.75985,0.51742 -2.31309,0.16629 z m 17.32413,-0.10922 c -0.37708,-0.28121 -0.45397,-0.96451 -0.51359,-4.56406 l -0.0701,-4.23333 -1.5875,-0.13229 -1.5875,-0.1323 v -1.05833 -1.05833 h 4.89479 4.8948 v 1.05833 1.05833 l -1.7198,0.1323 -1.71979,0.13229 -0.073,4.35422 c -0.0516,3.07728 -0.16796,4.41457 -0.39688,4.56001 -0.49547,0.31479 -1.62619,0.25252 -2.12144,-0.11684 z m 7.66246,0.15434 c -0.097,-0.097 -0.17639,-0.35474 -0.17639,-0.57272 0,-0.52081 4.21108,-9.83066 4.71753,-10.42953 0.40409,-0.47783 2.01234,-0.63391 2.61094,-0.25339 0.1744,0.11084 0.6695,0.97222 1.1004,1.91417 2.5583,5.59344 3.7691,8.52061 3.6919,8.92559 -0.096,0.50569 -0.9801,0.72312 -1.9498,0.47973 -0.4145,-0.10403 -0.7991,-0.55428 -1.1488,-1.34484 l -0.5257,-1.18845 -2.19773,0.004 c -1.20873,0.002 -2.32991,0.0915 -2.49151,0.19844 -0.16159,0.10691 -0.50563,0.6111 -0.76452,1.12043 -0.25889,0.50932 -0.60292,1.01351 -0.76452,1.12042 -0.36855,0.24384 -1.86547,0.26243 -2.1018,0.0261 z m 7.23198,-4.94935 c 0,-0.56826 -1.05558,-2.81176 -1.32295,-2.81176 -0.26737,0 -1.32292,2.2435 -1.32292,2.81176 0,0.2595 0.37782,0.36324 1.32292,0.36324 0.94505,0 1.32295,-0.10374 1.32295,-0.36324 z m 8.2116,4.63863 c -1.2898,-0.69173 -1.4983,-1.13048 -0.9412,-1.98079 0.5172,-0.78922 1.0765,-0.88087 1.8421,-0.30181 0.7955,0.6017 1.9222,0.48848 2.4003,-0.24122 0.3213,-0.49025 0.3959,-1.23718 0.3369,-3.37343 l -0.076,-2.74376 -1.8249,-0.13229 c -2.0989,-0.15216 -2.5901,-0.55558 -2.069,-1.69925 0.3078,-0.67563 0.3393,-0.682 3.3656,-0.682 2.9254,0 3.0644,0.0252 3.2786,0.59531 0.3881,1.03286 0.1945,8.16219 -0.2458,9.0521 -0.928,1.87564 -3.9704,2.63145 -6.0668,1.50714 z m 10.5076,0.20134 c -0.4163,-0.2425 -0.463,-0.79863 -0.463,-5.51581 0,-4.14769 0.077,-5.30982 0.3666,-5.55035 0.2493,-0.20692 1.6245,-0.28075 4.2995,-0.23083 l 3.9329,0.0734 v 1.05833 1.05833 l -2.7781,0.1323 -2.7782,0.13229 -0.082,0.99219 -0.082,0.99218 h 2.3443 c 2.4683,0 2.9793,0.20423 2.9793,1.19063 0,0.98633 -0.5111,1.19062 -2.9785,1.19062 h -2.3436 l 0.081,1.12448 0.081,1.12448 2.9104,0.13229 2.9105,0.13229 0.089,0.78071 c 0.1467,1.28933 -0.4002,1.46926 -4.4389,1.46021 -1.9731,-0.004 -3.7958,-0.12941 -4.0505,-0.27773 z m 12.8985,-0.18883 c -1.0661,-0.36378 -1.338,-0.57992 -1.4003,-1.11314 -0.043,-0.36393 0.093,-0.895 0.3017,-1.18015 0.3306,-0.45202 0.4702,-0.477 1.0893,-0.19491 1.4204,0.64719 3.0756,0.87936 4.0281,0.56501 0.7646,-0.25232 0.8935,-0.40802 0.8249,-0.99628 -0.086,-0.737 -0.083,-0.73575 -2.9732,-1.5163 -1.0807,-0.29189 -1.853,-0.70769 -2.481,-1.33575 -0.8343,-0.8343 -0.9004,-1.01406 -0.7767,-2.11187 0.2477,-2.19709 1.8863,-3.29369 4.8844,-3.26874 3.2113,0.0267 4.5048,0.92323 3.3283,2.30685 -0.4662,0.54828 -0.5072,0.55079 -2.0871,0.12757 -1.3755,-0.36846 -1.7361,-0.38015 -2.4613,-0.0798 -0.6881,0.28502 -0.8345,0.48169 -0.7697,1.03388 0.072,0.60984 0.3008,0.74306 2.1684,1.26059 2.6079,0.72263 3.2829,1.08113 3.7551,1.99417 0.9441,1.82581 -0.1466,4.13308 -2.2272,4.71095 -1.4342,0.39835 -3.7022,0.31026 -5.2037,-0.20212 z m 17.3963,0.29937 c -0.5218,-0.21055 -0.4701,-10.7568 0.055,-11.1925 0.6571,-0.54532 6.1263,-0.25953 7.4161,0.38752 1.5994,0.80235 2.3256,2.05776 2.1872,3.78129 -0.2031,2.53041 -1.7828,3.75366 -5.1244,3.96811 l -1.9541,0.1254 v 1.23521 c 0,0.67936 -0.1429,1.37808 -0.3175,1.5527 -0.3153,0.31531 -1.6286,0.39791 -2.2622,0.14227 z m 6.1159,-5.92939 c 0.8529,-0.67092 0.9293,-1.86528 0.168,-2.62663 -0.4116,-0.41157 -0.882,-0.52916 -2.1167,-0.52916 h -1.5875 v 1.85208 1.85208 h 1.4195 c 1.0355,0 1.6082,-0.14836 2.1167,-0.54837 z m 7.1001,5.78712 c -0.2261,-0.22607 -0.3175,-1.86272 -0.3175,-5.6835 v -5.366 l 0.6796,-0.17057 c 1.2606,-0.3164 6.271,0.0377 7.1684,0.50656 2.4383,1.2741 2.9235,4.38636 1.0133,6.5007 l -0.8984,0.99437 1.0851,1.52953 c 0.8763,1.23531 1.0139,1.57748 0.7149,1.77883 -0.5858,0.39444 -2.4333,0.059 -2.8811,-0.52309 -1.9077,-2.47995 -1.8406,-2.42433 -2.9244,-2.42433 h -1.047 v 1.31361 c 0,1.02794 -0.1113,1.37317 -0.5118,1.5875 -0.6867,0.36749 -1.6911,0.34645 -2.0811,-0.0436 z m 6.1291,-5.78712 c 0.6882,-0.54138 0.9234,-1.61412 0.4946,-2.25629 -0.3799,-0.56894 -1.3686,-0.8995 -2.6905,-0.8995 h -1.3403 v 1.85208 1.85208 h 1.4195 c 1.0355,0 1.6082,-0.14836 2.1167,-0.54837 z m 10.0898,5.61858 c -2.0142,-0.96621 -3.5736,-3.20587 -3.5704,-5.12785 0.01,-3.56768 2.5492,-6.01929 6.2501,-6.02519 3.9148,-0.006 6.406,2.56881 6.1332,6.33966 -0.1422,1.96629 -1.1412,3.53943 -2.8462,4.48189 -1.6008,0.88487 -4.4796,1.04481 -5.9667,0.33149 z m 4.3551,-2.32794 c 2.1324,-1.25967 2.1442,-4.94623 0.019,-6.04508 -1.6458,-0.85109 -3.8787,-0.28376 -4.6344,1.17749 -0.8316,1.6082 -0.2854,3.96373 1.1215,4.83603 0.9256,0.57389 2.5508,0.58856 3.4937,0.0316 z m 8.1221,2.42106 c -0.327,-0.32703 -0.3781,-1.25738 -0.3044,-5.54772 0.049,-2.83514 0.1645,-5.2777 0.2574,-5.42791 0.1037,-0.16788 1.6794,-0.27311 4.0895,-0.27311 4.2941,0 4.6274,0.11231 4.4677,1.50535 l -0.085,0.7436 -2.8173,0.0748 -2.8173,0.0748 -0.099,1.03335 c -0.054,0.56834 -0.056,1.15975 0,1.31424 0.056,0.1671 0.969,0.28253 2.2544,0.28494 1.1884,0.002 2.3185,0.10401 2.5111,0.22618 0.2108,0.1336 0.3162,0.58019 0.2646,1.12043 l -0.086,0.8983 -2.3726,0.0773 c -1.488,0.0485 -2.4482,0.19642 -2.5756,0.39688 -0.1117,0.17577 -0.2049,1.05099 -0.2072,1.94493 0,1.23542 -0.1044,1.66386 -0.4225,1.78593 -0.7268,0.27887 -1.6461,0.17485 -2.0533,-0.23232 z m 11.9968,0.13362 c -0.3366,-0.21306 -0.3829,-1.06611 -0.3044,-5.61834 0.051,-2.95193 0.1471,-5.45645 0.214,-5.56559 0.2126,-0.34685 7.8845,-0.23599 8.2396,0.11907 0.4202,0.42029 0.4046,1.39742 -0.028,1.75657 -0.19,0.15773 -1.5295,0.32113 -2.9766,0.36312 l -2.631,0.0763 v 0.92604 0.92604 l 1.9844,0.0669 c 2.9801,0.10054 3.175,0.17763 3.175,1.25597 0,1.07834 -0.1949,1.15543 -3.175,1.25597 l -1.9844,0.0669 v 1.05834 1.05833 l 2.9104,0.13229 2.9105,0.13229 0.086,0.8983 c 0.052,0.54024 -0.054,0.98684 -0.2646,1.12043 -0.4836,0.30661 -7.6656,0.28101 -8.1555,-0.0291 z m 13.7583,0.0882 c -2.3978,-0.78155 -2.8213,-1.34343 -1.8846,-2.50024 0.4961,-0.61264 0.4978,-0.61279 1.5655,-0.13136 1.2644,0.57018 3.5416,0.66642 4.1341,0.17471 1.0165,-0.84359 0.2259,-1.53368 -2.5994,-2.26911 -2.473,-0.64372 -3.4645,-1.52989 -3.4645,-3.09645 0,-2.32497 1.7797,-3.64386 4.8948,-3.62734 3.0827,0.0163 4.2664,0.80151 3.34,2.21542 -0.4032,0.61537 -0.4242,0.6179 -1.7915,0.21707 -1.5668,-0.45927 -3.027,-0.24316 -3.5025,0.51836 -0.4417,0.70742 0.275,1.22294 2.494,1.79369 2.9363,0.7553 4.1079,1.87099 3.8468,3.66322 -0.3051,2.09473 -2.0285,3.21178 -4.916,3.18646 -0.9459,-0.008 -1.8984,-0.0733 -2.1167,-0.14443 z m 10.5172,-0.11464 c -0.4162,-0.24244 -0.463,-0.79765 -0.463,-5.49529 0,-5.61462 0.057,-5.8606 1.3542,-5.8606 1.6033,0 1.5562,-0.17612 1.5562,5.82083 0,4.77087 -0.055,5.52092 -0.4185,5.66023 -0.6161,0.23642 -1.5019,0.18176 -2.0289,-0.12517 z m 8.7656,-0.45353 c -2.0445,-1.06804 -3.0109,-2.69908 -3.0109,-5.08153 0,-2.41713 0.9709,-4.05174 3.0253,-5.09323 3.3003,-1.67315 7.3366,-0.51242 8.9513,2.57419 0.6209,1.18678 0.5459,3.7232 -0.15,5.07313 -1.5713,3.04826 -5.6051,4.20471 -8.8157,2.52744 z m 4.9623,-2.1497 c 0.5413,-0.33006 0.9944,-0.93777 1.3043,-1.74915 0.4271,-1.1182 0.4368,-1.35264 0.097,-2.32888 -0.9933,-2.8505 -4.8159,-3.1161 -6.2044,-0.43108 -1.5867,3.06827 1.8602,6.30386 4.8035,4.50911 z m 7.9207,2.47323 c -0.3492,-0.34915 -0.4158,-1.23106 -0.4158,-5.50333 0,-3.60422 0.093,-5.18013 0.3175,-5.40506 0.1746,-0.17463 0.7048,-0.3175 1.1781,-0.3175 0.7746,0 1.1153,0.30611 3.4145,3.06779 1.419,1.7045 2.6547,2.96701 2.7807,2.84099 0.1248,-0.12474 0.2611,-1.47548 0.3029,-3.00165 l 0.076,-2.77484 1.0271,-0.0842 c 0.5648,-0.0463 1.1395,0.0283 1.2769,0.1657 0.3553,0.3553 0.2963,10.94614 -0.062,11.16771 -0.1541,0.0952 -0.6785,0.10344 -1.1653,0.0182 -0.7191,-0.12588 -1.342,-0.68847 -3.3209,-2.99921 -1.3397,-1.56435 -2.5436,-2.84427 -2.6754,-2.84427 -0.1318,0 -0.2396,1.22634 -0.2396,2.7252 0,1.76683 -0.1116,2.83687 -0.3175,3.04271 -0.4495,0.44954 -1.6851,0.39376 -2.1771,-0.0983 z m 13.4087,0.24054 c -0.1819,-0.0734 -0.3307,-0.26763 -0.3307,-0.43163 0,-0.35966 4.4542,-10.23394 4.8285,-10.70407 0.1449,-0.18191 0.77,-0.33073 1.3892,-0.33073 0.6192,0 1.2432,0.14882 1.3868,0.33073 0.1435,0.1819 0.9179,1.81901 1.7208,3.63802 0.8029,1.81901 1.853,4.17975 2.3335,5.24609 0.9649,2.1416 0.8855,2.41491 -0.7038,2.42277 -0.809,0.004 -1.6946,-0.66157 -1.6946,-1.27355 0,-0.17044 -0.2381,-0.54802 -0.5292,-0.83906 -0.4402,-0.44018 -0.8819,-0.52917 -2.6269,-0.52917 -2.1452,0 -2.9293,0.32377 -2.9293,1.20952 0,0.99133 -1.6737,1.73341 -2.8443,1.26108 z m 7.1506,-4.74842 c 0.1763,-0.17634 -0.7586,-2.7321 -1.1437,-3.12633 -0.2896,-0.29649 -1.6882,2.62591 -1.445,3.01939 0.1774,0.28711 2.32,0.37563 2.5887,0.10694 z m 8.0629,4.63788 c -0.4162,-0.24244 -0.463,-0.79765 -0.463,-5.49529 0,-5.67414 0.047,-5.86356 1.442,-5.85655 1.4257,0.007 1.4492,0.0806 1.5278,4.76985 l 0.073,4.35422 2.6366,0.0764 c 2.6636,0.0772 3.0393,0.2204 3.0479,1.16146 0.01,1.07966 -0.6586,1.27606 -4.3143,1.26763 -1.9178,-0.004 -3.6952,-0.12941 -3.9499,-0.27773 z m 11.2316,-0.0317 c -0.408,-0.40804 -0.447,-10.05872 -0.044,-10.81239 0.2518,-0.4705 0.5889,-0.51177 4.1804,-0.51177 4.1145,0 4.5415,0.11389 4.5415,1.21114 0,0.94134 -0.5538,1.14572 -3.3221,1.22605 l -2.631,0.0763 v 0.92604 0.92604 l 1.9844,0.0669 c 2.9801,0.10054 3.175,0.17763 3.175,1.25597 0,1.07834 -0.1949,1.15543 -3.175,1.25597 l -1.9844,0.0669 v 1.05834 1.05833 l 2.9104,0.13229 2.9104,0.13229 0.086,0.8983 c 0.052,0.54024 -0.054,0.98684 -0.2646,1.12043 -0.5694,0.361 -7.9964,0.28354 -8.3672,-0.0873 z m 13.1763,-0.16636 c -1.29,-0.49304 -1.6042,-1.14206 -1.0523,-2.17326 0.2271,-0.42443 0.4484,-0.52194 0.8765,-0.38628 2.5473,0.8072 3.2193,0.91129 4.1921,0.64934 0.8188,-0.22047 1.0107,-0.3941 1.0107,-0.91412 0,-0.75668 -0.4356,-1.02291 -2.3283,-1.42274 -2.8306,-0.598 -4.0062,-1.58882 -4.0158,-3.38471 -0.01,-1.30427 0.9273,-2.59643 2.2884,-3.16514 1.7137,-0.71605 5.6903,-0.29666 6.2832,0.66267 0.2677,0.43319 -0.6137,1.95353 -1.0382,1.79066 -2.1501,-0.82509 -4.1523,-0.79427 -4.6154,0.071 -0.4232,0.79086 0.2155,1.26127 2.5559,1.88231 1.2739,0.33804 2.4458,0.8299 2.8335,1.18919 1.7857,1.65489 0.8938,4.52678 -1.672,5.38433 -1.3006,0.43468 -3.9395,0.34374 -5.3183,-0.18328 z m -267.75327,-22.78991 c -0.19109,-0.35707 -0.25608,-10.45743 -0.20774,-32.28885 0.0618,-27.89995 0.11867,-31.79979 0.46721,-32.02009 0.45168,-0.28549 19.73391,-0.32512 20.39735,-0.0419 0.23172,0.0989 2.30324,2.26344 4.60338,4.81005 6.35316,7.03395 19.11762,21.29165 20.88516,23.3284 0.8625,0.99386 1.76086,1.80702 1.99637,1.80702 0.2355,0 1.1967,-0.87399 2.13598,-1.9422 10.17945,-11.57657 24.86486,-27.79029 25.36366,-28.00327 0.524,-0.22372 19.6683,-0.27709 20.2433,-0.0564 0.3785,0.14523 0.4186,3.24447 0.4186,32.38315 0,29.13867 -0.04,32.23792 -0.4186,32.38315 -0.2301,0.0883 -4.4331,0.1606 -9.3398,0.1606 -6.5859,0 -9.0043,-0.0831 -9.2387,-0.3175 -0.2409,-0.24085 -0.3175,-4.74976 -0.3175,-18.67518 0,-10.32252 -0.1009,-18.31907 -0.2306,-18.26948 -0.1268,0.0485 -2.895,3.12928 -6.1515,6.84616 -3.2566,3.71689 -8.4809,9.63972 -11.6096,13.16185 l -5.68854,6.40389 -5.1848,0.001 -5.1848,10e-4 -3.67874,-4.15635 c -2.02331,-2.28599 -7.22948,-8.20935 -11.56927,-13.16302 -4.33978,-4.95367 -8.00096,-9.04636 -8.13593,-9.09487 -0.14933,-0.0537 -0.24542,7.11669 -0.24542,18.31309 0,17.92202 -0.0133,18.40842 -0.51177,18.67517 -0.32402,0.17341 -3.81504,0.2739 -9.51569,0.2739 -8.67792,0 -9.01399,-0.0188 -9.28201,-0.51961 z m 107.06297,0.34322 c -0.097,-0.097 -0.1764,-9.13303 -0.1764,-20.08003 0,-17.90544 0.042,-19.91976 0.4185,-20.06423 0.2302,-0.0883 4.4423,-0.1606 9.3603,-0.1606 6.9846,0 9.0039,0.0748 9.2254,0.34176 0.156,0.18796 0.3194,1.17023 0.3632,2.18281 l 0.08,1.84105 21.6971,0.0677 c 24.5777,0.0767 22.9338,0.21665 24.1353,-2.05538 0.5281,-0.99852 0.6019,-1.52216 0.6019,-4.26626 0,-3.60524 -0.3791,-4.92358 -1.6837,-5.85413 l -0.8298,-0.5919 -31.6177,-0.13229 -31.6177,-0.13229 -0.07,-7.86533 -0.07,-7.86533 0.5993,-0.1497 c 0.3296,-0.0823 15.4225,-0.1097 33.5398,-0.0608 l 32.9407,0.0889 2.2489,0.59403 c 5.6151,1.48314 9.7335,4.69177 12.017,9.36233 1.7159,3.50975 1.8736,4.54044 1.8736,12.24592 0,7.81562 -0.1432,8.70506 -2.0235,12.56771 -2.008,4.12499 -6.1031,7.50052 -10.8691,8.95932 -3.1921,0.97707 -6.3194,1.09484 -29.0718,1.09484 h -21.9324 v 9.89357 c 0,8.77756 -0.047,9.91168 -0.4185,10.05417 -0.5727,0.21973 -18.4993,0.20461 -18.7197,-0.0158 z m -56.87562,-78.57142 c -0.10242,-0.10242 -0.18621,-8.7899 -0.18621,-19.30551 0,-17.85605 -0.0306,-19.1499 -0.46302,-19.5824 -0.59058,-0.59067 -0.57685,-2.44115 0.0245,-3.29965 0.39405,-0.56259 0.43855,-1.95922 0.43855,-13.76402 0,-11.35535 -0.0539,-13.18259 -0.39688,-13.46728 -0.50037,-0.41527 -0.50037,-2.0351 0,-2.91041 0.3043,-0.53232 0.37996,-2.22746 0.3875,-8.6825 0.006,-5.222 0.10914,-8.20745 0.29526,-8.55521 0.43847,-0.8193 1.90775,-1.34136 2.80983,-0.99839 1.737,0.66041 1.66679,0.24926 1.66679,9.75987 0,6.51677 0.0813,8.74037 0.33073,9.04949 0.1819,0.22541 1.01533,0.79268 1.85208,1.26062 0.92219,0.51571 1.51842,1.02549 1.51391,1.29439 -0.0106,0.62989 -1.68312,3.62784 -1.9933,3.57286 -0.14195,-0.0252 -0.58328,-0.12736 -0.98075,-0.22712 l -0.72267,-0.18138 v 12.18605 12.18605 l 0.85989,0.6447 c 0.47295,0.35459 1.36591,0.89885 1.98438,1.20947 0.72728,0.36528 1.12448,0.74147 1.12448,1.06501 0,0.53356 -1.01963,3.44194 -1.33569,3.80992 -0.10387,0.12093 -0.68162,-0.0315 -1.28389,-0.33877 -0.82995,-0.42341 -1.12587,-0.47664 -1.22244,-0.21987 -0.0701,0.18632 -0.15703,8.25642 -0.19322,17.93356 l -0.0658,17.59479 -2.12889,0.076 c -1.17089,0.0418 -2.21269,-0.008 -2.31511,-0.11024 z m 13.57212,-0.0693 c 0,-0.46281 -1.60378,-0.27644 28.8396,-3.35133 8.0764,-0.81575 16.2133,-1.50319 18.0821,-1.52766 l 3.3977,-0.0445 -0.01,-34.76359 -0.01,-34.7636 0.7567,-0.75672 c 0.4484,-0.44843 1.0398,-0.75671 1.4517,-0.75671 0.9919,0 2.182,0.68449 2.6099,1.50113 l 0.3671,0.70072 3.9441,-3.8129 c 4.9148,-4.75138 14.1676,-13.61334 23.5831,-22.58701 l 7.2061,-6.86785 v -8.22067 c 0,-9.12875 -0.01,-9.09155 1.7362,-9.66674 0.7298,-0.24086 1.1176,-0.23722 1.7295,0.0162 1.5571,0.64499 1.5614,0.67113 1.5614,9.54037 v 8.11052 l 4.8268,4.19988 c 2.6547,2.30994 6.3754,5.56153 8.2682,7.22577 1.8928,1.66424 8.5611,7.51011 14.8185,12.99082 6.2574,5.48071 12.5484,10.99492 13.9799,12.2538 1.4315,1.25888 2.7114,2.28887 2.8443,2.28887 0.1397,0 0.2415,-3.0575 0.2415,-7.25684 v -7.25684 l 0.6971,-0.54837 c 0.9892,-0.77808 2.729,-0.74618 3.4901,0.064 0.5737,0.61067 0.5753,0.64642 0.5753,12.96458 0,8.44518 -0.088,12.35222 -0.2777,12.35222 -0.58,0 -4.2564,-3.13903 -26.205,-22.3747 -4.3062,-3.77397 -10.3694,-9.06442 -13.4738,-11.75655 -3.1043,-2.69214 -6.4788,-5.63894 -7.4988,-6.54844 -1.02,-0.90951 -1.9517,-1.65365 -2.0705,-1.65365 -0.1187,0 -0.2178,5.74477 -0.2201,12.76615 -0.011,33.0964 0.023,43.06507 0.1447,43.38071 0.073,0.18793 0.5719,0.63934 1.1091,1.00314 0.8668,0.58703 37.5259,28.04223 41.8775,31.36346 0.9459,0.72192 1.8095,1.43165 1.9193,1.57717 0.2926,0.3881 0.1113,5.23401 -0.1995,5.33321 -0.3066,0.0978 -4.2284,-2.79604 -27.2216,-20.08684 -9.2424,-6.95033 -16.9892,-12.70783 -17.2149,-12.79445 -0.3684,-0.14139 -0.4104,1.7509 -0.4104,18.5023 0,10.26288 -0.072,18.84812 -0.1606,19.0783 -0.1456,0.37948 -4.5877,0.41852 -47.625,0.41852 -27.6191,0 -47.4644,-0.0986 -47.4644,-0.2359 z m 90.2229,-7.30473 c 0,-1.53975 -0.105,-2.51354 -0.2711,-2.51354 -0.5329,0 -14.3972,4.5083 -14.654,4.76509 -0.1729,0.17294 2.3191,0.262 7.3316,0.262 h 7.5935 z m -19.4619,0.13196 c 3.3552,-0.99165 8.8984,-2.60072 12.3182,-3.57571 3.4197,-0.97499 6.426,-1.88311 6.6807,-2.01806 0.4314,-0.2286 0.463,-1.13842 0.463,-13.33291 0,-11.5821 -0.047,-13.08757 -0.4056,-13.08757 -0.4553,0 -9.0615,2.95987 -24.1636,8.3104 -5.5822,1.97772 -10.1959,3.59585 -10.2526,3.59585 -0.057,0 -0.1032,4.93282 -0.1032,10.96181 v 10.9618 l 0.5953,0.0845 c 0.3275,0.0465 2.434,0.0437 4.6813,-0.006 l 4.086,-0.0909 z m -3.6891,-29.44242 c 5.9663,-2.10889 13.5863,-4.78327 16.9333,-5.94307 l 6.0854,-2.10873 0.069,-12.47356 c 0.038,-6.86818 -0.034,-12.47355 -0.1595,-12.47355 -0.3191,0 -21.4723,9.637 -31.8577,14.51374 l -2.8443,1.3356 v 10.62702 c 0,9.99604 0.028,10.619 0.463,10.49195 0.2547,-0.0743 5.3446,-1.86052 11.311,-3.9694 z m -3.3974,-26.41804 c 4.3424,-2.05583 9.9194,-4.66166 12.3932,-5.79073 7.0163,-3.20226 13.1904,-6.06128 13.6261,-6.30983 0.3421,-0.19521 0.4063,-1.90896 0.4656,-12.43461 0.039,-6.91105 -0.032,-12.2082 -0.1642,-12.2082 -0.2435,0 -6.2853,5.69178 -21.2035,19.97539 -4.875,4.66755 -9.9054,9.48083 -11.1787,10.69616 l -2.3151,2.20971 v 3.8 c 0,2.10456 0.1074,3.79999 0.2406,3.79999 0.1324,0 3.7935,-1.68205 8.136,-3.73788 z"
         id="path2" /><path
         style="fill:#042b5c"
         d="m 1010.5165,-491.06554 c -0.954,-0.21934 -2.1894,-0.95157 -2.1894,-1.29774 0,-0.12435 0.17,-0.36721 0.3779,-0.53969 0.2946,-0.24453 0.554,-0.22253 1.1775,0.0999 1.0666,0.55157 1.9567,0.52148 2.7148,-0.0918 0.5762,-0.46611 0.6315,-0.7308 0.7135,-3.41448 0.1163,-3.80755 0.025,-3.97105 -2.2746,-4.07186 -1.5806,-0.0693 -1.7831,-0.13825 -1.7831,-0.60734 0,-0.49709 0.1764,-0.52917 2.9105,-0.52917 h 2.9104 v 4.23334 c 0,3.63931 -0.067,4.33167 -0.4759,4.93418 -0.7211,1.06185 -2.5486,1.63706 -4.0816,1.28465 z m 107.745,-1.1e-4 c -2.3228,-0.48627 -2.8508,-0.91083 -2.2712,-1.82619 0.1987,-0.31378 0.3998,-0.30373 1.3242,0.0661 1.567,0.627 3.8457,0.58008 4.5189,-0.0931 0.5933,-0.59338 0.6434,-0.8795 0.2746,-1.5686 -0.2768,-0.51733 -1.0745,-0.88693 -2.9205,-1.35323 -2.7088,-0.68424 -3.6888,-1.69113 -3.3127,-3.40354 0.1952,-0.88867 1.4125,-2.05272 2.4079,-2.30254 0.9825,-0.24661 4.5536,-2e-5 4.8913,0.33776 0.1647,0.16466 0.226,0.53062 0.1363,0.81325 -0.1545,0.48692 -0.2387,0.4946 -1.6055,0.14649 -1.8083,-0.46056 -3.4519,-0.10973 -3.8792,0.82802 -0.4604,1.01049 0.1025,1.67 1.8313,2.14555 3.788,1.04201 4.5577,1.58324 4.5577,3.20479 0,2.10742 -3.0022,3.62293 -5.9531,3.00515 z m 20.5915,-0.0365 c -3.656,-0.64445 -5.6024,-4.22259 -4.0826,-7.50519 0.9843,-2.12608 2.6293,-3.04696 5.4248,-3.0369 2.8133,0.0101 4.8233,1.39579 5.4782,3.77654 0.3961,1.44006 -0.027,3.62517 -0.9313,4.8109 -1.1243,1.47408 -3.7227,2.33651 -5.8891,1.95465 z m 3.6255,-2.22087 c 0.4272,-0.40926 0.9751,-1.26356 1.2176,-1.89844 0.5669,-1.48455 0.2229,-2.77196 -1.0775,-4.03238 -1.1871,-1.15055 -3.2263,-1.41298 -4.5434,-0.58471 -0.896,0.56346 -1.9543,2.46299 -1.9543,3.50764 0,1.10734 1.1127,2.93412 2.1166,3.47496 1.34,0.7219 3.2156,0.51533 4.241,-0.46707 z m 61.9049,2.2623 c -1.3157,-0.28094 -2.3813,-0.74459 -2.3813,-1.03614 0,-0.91475 0.2878,-1.05486 1.3771,-0.67051 1.4265,0.50326 3.6422,0.48601 4.3849,-0.0341 0.7047,-0.4936 0.7641,-1.46359 0.125,-2.04135 -0.2547,-0.23021 -1.2729,-0.62188 -2.2627,-0.87037 -3.0403,-0.76324 -4.0823,-1.83579 -3.583,-3.68786 0.4753,-1.76303 3.0908,-2.80167 5.6623,-2.24855 1.8454,0.39691 2.0971,0.58945 1.7118,1.30938 -0.2224,0.41552 -0.4396,0.52455 -0.755,0.37897 -0.2435,-0.1124 -1.1956,-0.25124 -2.1158,-0.30854 -1.322,-0.0823 -1.7799,-0.007 -2.1828,0.35715 -1.0476,0.9481 -0.4576,2.30548 1.1412,2.62527 3.449,0.68987 4.6991,1.57982 4.6991,3.34539 0,1.44964 -1.0012,2.44113 -2.8696,2.84184 -1.5216,0.32631 -1.6028,0.3274 -2.9512,0.0395 z m -268.16295,-0.32752 c -0.0753,-0.19632 -0.10443,-2.55578 -0.0647,-5.24324 l 0.0723,-4.88628 0.79375,-0.0764 c 0.7567,-0.0728 0.88529,0.0785 2.75465,3.24115 1.21443,2.05462 2.12256,3.31752 2.38558,3.31752 0.2365,0 0.82261,-0.67414 1.3227,-1.52136 2.58846,-4.38518 3.16955,-5.13145 3.92764,-5.04411 l 0.72193,0.0832 v 5.15938 5.15937 h -0.79375 -0.79375 l -0.13229,-3.0427 c -0.0728,-1.67349 -0.22159,-3.01295 -0.33073,-2.97657 -0.10914,0.0364 -0.29261,0.0661 -0.4077,0.0661 -0.1151,0 -0.85437,1.07156 -1.64282,2.38125 -0.92016,1.52847 -1.59746,2.38125 -1.89125,2.38125 -0.28991,0 -0.98271,-0.84875 -1.88974,-2.3151 -2.02372,-3.27164 -2.26834,-3.21867 -2.36174,0.51146 l -0.075,2.99426 -0.72911,0.0839 c -0.43302,0.0498 -0.78473,-0.0611 -0.86608,-0.2731 z m 19.57591,-0.1758 c -3.18503,-1.44676 -4.08682,-6.06766 -1.64528,-8.43069 1.1879,-1.14971 2.54236,-1.65532 4.43435,-1.65532 3.30327,0 5.25459,1.56758 5.64197,4.53243 0.44449,3.40201 -2.08667,6.05842 -5.76006,6.0451 -0.97786,-0.004 -2.01817,-0.19499 -2.67098,-0.49152 z m 4.65387,-1.4218 c 1.83628,-1.23747 2.51303,-3.92459 1.37535,-5.461 -2.34606,-3.1683 -6.81196,-2.04613 -7.12976,1.79153 -0.25973,3.13628 3.23691,5.36601 5.75441,3.66947 z m 8.45395,-3.37254 V -501.65 h 0.76644 c 0.65779,0 1.13602,0.44931 3.37344,3.16939 1.49938,1.82283 2.80372,3.17177 3.07002,3.175 0.41556,0.005 0.46302,-0.31983 0.46302,-3.16939 v -3.175 h 0.92604 0.92604 v 5.16768 c 0,4.43096 -0.0587,5.19019 -0.41148,5.32558 -0.74292,0.28509 -1.41611,-0.26994 -3.89973,-3.21522 -1.3489,-1.59963 -2.6571,-2.94781 -2.90712,-2.99596 -0.40945,-0.0788 -0.45458,0.22958 -0.45458,3.10686 v 3.1944 h -0.92604 -0.92605 z m 17.37431,5.11528 c -0.097,-0.097 -0.17639,-2.03774 -0.17639,-4.31271 0,-2.86436 -0.0976,-4.23395 -0.3175,-4.45382 -0.17462,-0.17463 -0.94853,-0.3175 -1.71979,-0.3175 -1.31939,0 -1.40229,-0.0391 -1.40229,-0.66146 V -501.65 h 4.49791 4.49792 v 0.66146 c 0,0.62953 -0.0741,0.66146 -1.53458,0.66146 -0.84402,0 -1.67746,0.14287 -1.85209,0.3175 -0.22097,0.22097 -0.3175,1.62866 -0.3175,4.63021 v 4.31271 h -0.74965 c -0.41231,0 -0.82903,-0.0794 -0.92604,-0.17639 z m 7.76111,-0.18583 c 0,-0.42153 4.10091,-9.34587 4.53491,-9.86881 0.16081,-0.19377 0.69564,-0.35231 1.1885,-0.35231 0.83999,0 0.94469,0.10352 1.67259,1.65365 1.8604,3.96196 3.7165,8.25419 3.7165,8.59423 0,0.25503 -0.2573,0.34338 -0.8332,0.28607 -0.853,-0.0849 -1.0909,-0.33245 -1.5417,-1.60426 l -0.2578,-0.7276 h -2.86428 -2.86424 l -0.57845,1.19062 c -0.4954,1.01968 -0.69291,1.19063 -1.37564,1.19063 -0.49832,0 -0.79719,-0.1358 -0.79719,-0.36222 z m 7.3622,-3.95405 c 0.1458,-0.76504 -1.2892,-3.88582 -1.78677,-3.88582 -0.27497,0 -0.69095,0.59766 -1.15096,1.65365 -1.15457,2.65038 -1.04246,2.90045 1.25056,2.78931 1.29487,-0.0627 1.61297,-0.16779 1.68717,-0.55714 z m 18.423,3.98432 c -0.073,-0.19059 -0.1004,-2.54536 -0.061,-5.23282 l 0.072,-4.88628 3.7703,-0.0734 3.7703,-0.0734 v 0.66873 0.66872 h -2.6134 c -3.0189,0 -3.2827,0.1586 -3.1575,1.89867 l 0.082,1.14404 2.5135,0.13229 c 2.2931,0.12069 2.5135,0.17871 2.5135,0.66146 0,0.48275 -0.2204,0.54077 -2.5135,0.66146 l -2.5135,0.13229 -0.082,1.27733 c -0.1214,1.90239 0.087,2.02996 3.3073,2.02996 2.7151,0 2.7626,0.0105 2.6795,0.59531 -0.083,0.58159 -0.1716,0.59701 -3.8603,0.66876 -2.9216,0.0568 -3.8059,-0.005 -3.9088,-0.2731 z m 12.8472,-0.0137 c -0.5294,-0.18114 -0.963,-0.5252 -1.017,-0.80692 -0.1588,-0.82791 0.3083,-1.00281 1.5284,-0.57233 2.3624,0.83349 4.777,0.31427 4.777,-1.0272 0,-0.87105 -0.7412,-1.41929 -2.392,-1.76932 -1.7826,-0.37796 -3.3223,-1.13519 -3.6845,-1.81203 -0.4028,-0.75261 -0.3327,-2.19552 0.1395,-2.86959 0.6983,-0.99703 1.7874,-1.38028 3.9223,-1.38028 2.8083,0 3.7936,0.46918 3.1352,1.4928 -0.1437,0.22326 -0.6209,0.19773 -1.8275,-0.0978 -1.5266,-0.37383 -1.6992,-0.36765 -2.6459,0.0947 -0.7357,0.35934 -1.0347,0.68454 -1.0932,1.18897 -0.1182,1.01949 0.4833,1.44395 2.7659,1.95178 2.5356,0.56412 3.5323,1.40023 3.5323,2.9632 0,2.03523 -1.4339,2.99958 -4.4233,2.9747 -0.9869,-0.008 -2.2097,-0.15704 -2.7172,-0.33073 z m 17.5198,-4.86267 0.072,-5.24271 2.5135,-0.0794 c 3.1285,-0.0988 4.5209,0.26357 5.5599,1.44693 0.6486,0.73863 0.7901,1.13352 0.7901,2.20433 0,1.0799 -0.1404,1.46442 -0.8155,2.23332 -0.951,1.08316 -2.1027,1.46731 -4.405,1.46937 -1.8129,0.002 -1.8216,0.0109 -1.9841,2.11814 -0.064,0.83511 -0.1564,0.93423 -0.937,1.00938 l -0.8655,0.0833 z m 6.4537,-0.17468 c 0.8739,-1.01597 0.8218,-2.13828 -0.1439,-3.104 -0.6793,-0.67935 -0.9625,-0.7734 -2.3283,-0.7734 -0.8566,0 -1.6975,0.14259 -1.8724,0.3175 -0.3485,0.34842 -0.4486,3.95937 -0.1191,4.29337 0.1091,0.11063 1.0165,0.15554 2.0163,0.0998 1.5933,-0.0888 1.8956,-0.19175 2.4474,-0.83326 z m 6.7149,0.10811 v -5.3084 l 2.712,10e-4 c 3.3735,0.002 4.4288,0.28541 5.4684,1.46936 0.6778,0.77198 0.8155,1.15166 0.8155,2.24845 0,1.17974 -0.1164,1.44588 -1.0979,2.51072 l -1.098,1.19109 0.9657,1.40205 c 0.5311,0.77112 0.9656,1.48262 0.9656,1.58111 0,0.0985 -0.3502,0.17908 -0.7782,0.17908 -0.6303,0 -0.995,-0.27854 -1.9183,-1.46473 -1.2005,-1.54254 -1.6944,-1.80304 -3.1539,-1.66362 -0.8811,0.0842 -0.8988,0.11058 -1.0288,1.54085 -0.1288,1.41665 -0.1551,1.4574 -0.9922,1.53811 l -0.8599,0.0829 z m 5.8209,0.31356 c 1.7719,-0.8852 1.6537,-3.35546 -0.1943,-4.05806 -0.3827,-0.1455 -1.3588,-0.22948 -2.169,-0.18663 l -1.4732,0.0779 -0.079,1.95962 c -0.043,1.07778 -0.017,2.11958 0.058,2.3151 0.2015,0.52506 2.7318,0.45425 3.8572,-0.10794 z m 10.5912,4.66697 c -3.6135,-1.44212 -4.6545,-6.2776 -1.8893,-8.77577 1.3373,-1.20817 2.5885,-1.59275 4.7791,-1.46897 2.1515,0.12157 3.6967,0.99823 4.4696,2.53577 2.0125,4.00326 -0.5636,8.03412 -5.1041,7.98658 -0.881,-0.009 -1.8958,-0.13415 -2.2553,-0.27761 z m 4.1617,-1.55628 c 3.3663,-2.05246 1.9778,-7.40778 -1.9206,-7.40778 -2.0582,0 -3.8377,1.78106 -3.8312,3.83448 0.01,3.05344 3.2762,5.08272 5.7518,3.5733 z m 8.1812,1.66314 c -0.1804,-0.29181 -0.1873,-8.14922 -0.01,-9.41074 l 0.1418,-0.99931 3.7459,0.0733 c 3.6577,0.0715 3.7478,0.0873 3.8304,0.66858 0.083,0.58245 0.028,0.5954 -2.5136,0.59936 -1.4289,0.002 -2.7534,0.10257 -2.9432,0.22298 -0.2366,0.15006 -0.3198,0.7106 -0.2646,1.78189 l 0.081,1.56295 2.5135,0.1323 c 2.4807,0.13056 2.5552,0.16314 2.421,1.05833 -0.023,0.15142 -0.9733,0.26632 -2.2225,0.26863 -1.2006,0.002 -2.3256,0.0948 -2.5001,0.20576 -0.1829,0.11624 -0.3511,0.98334 -0.3969,2.04647 l -0.08,1.84476 -0.8351,0.0811 c -0.4592,0.0446 -0.8955,-0.0167 -0.9693,-0.13628 z m 11.8391,-0.16478 c -0.077,-0.20158 -0.1046,-2.55627 -0.061,-5.23263 l 0.08,-4.86612 3.9026,-0.0732 3.9026,-0.0732 v 0.66853 0.66853 h -2.7688 c -3.0481,0 -3.3166,0.14428 -3.3166,1.78177 0,1.20131 0.4082,1.39323 2.9633,1.39323 2.2977,0 2.3283,0.009 2.3283,0.65153 0,0.63988 -0.044,0.65289 -2.4474,0.7276 l -2.4474,0.0761 v 1.5875 1.5875 l 2.9939,0.075 c 2.9212,0.0732 2.9917,0.0892 2.9104,0.66146 -0.081,0.57149 -0.1833,0.58836 -3.9916,0.65974 -3.1361,0.0588 -3.936,8.4e-4 -4.0488,-0.29326 z m 24.4052,0.17591 c -0.097,-0.097 -0.1763,-2.47827 -0.1763,-5.29167 V -501.65 h 0.926 0.926 v 5.29167 5.29167 h -0.7496 c -0.4123,0 -0.829,-0.0794 -0.9261,-0.17639 z m 21.6959,0 c -0.097,-0.097 -0.1764,-2.47827 -0.1764,-5.29167 V -501.65 h 0.8946 c 0.7237,0 1.0384,0.18961 1.647,0.99219 1.8759,2.474 4.4313,5.35781 4.7477,5.35781 0.4593,0 0.6977,-0.81096 0.6433,-2.18849 -0.024,-0.61534 -0.033,-1.81095 -0.02,-2.65692 l 0.025,-1.53811 0.8599,0.0829 0.8599,0.0829 v 5.15938 c 0,5.09139 -0.01,5.16045 -0.5737,5.24109 -0.7402,0.10542 -1.7256,-0.79472 -4.1447,-3.78588 -1.2306,-1.52149 -2.1116,-2.38125 -2.4402,-2.38125 -0.476,0 -0.5199,0.23185 -0.5889,3.10885 l -0.074,3.10886 h -0.7413 c -0.4077,0 -0.8206,-0.0794 -0.9176,-0.17639 z m 13.3154,-0.005 c 0,-0.2932 4.2471,-9.6567 4.5708,-10.07093 0.3348,-0.42849 1.9002,-0.42803 2.256,6.6e-4 0.1512,0.18227 0.51,0.92641 0.7972,1.65365 0.2872,0.72724 1.2496,2.89288 2.1386,4.81253 0.889,1.91965 1.6164,3.55676 1.6164,3.63802 0,0.0813 -0.4209,0.14775 -0.9354,0.14775 -0.854,0 -0.9791,-0.10169 -1.4362,-1.16817 l -0.5007,-1.16817 -1.9373,-0.0886 c -3.4344,-0.15708 -3.7832,-0.0614 -4.3503,1.19268 -0.4168,0.92181 -0.6366,1.11339 -1.3573,1.18287 -0.4729,0.0456 -0.8607,-0.0139 -0.8618,-0.13229 z m 7.4954,-4.36271 c -0.06,-0.89883 -1.4329,-3.73739 -1.871,-3.86787 -0.3155,-0.094 -0.8649,0.95754 -1.6727,3.20119 -0.4695,1.30424 -0.1481,1.53575 2.0034,1.44303 1.541,-0.0664 1.5861,-0.0891 1.5403,-0.77635 z m 7.7085,4.21265 c -0.073,-0.19071 -0.1005,-2.54557 -0.061,-5.23303 l 0.072,-4.88628 0.8599,-0.0829 0.8599,-0.0829 v 4.32947 c 0,3.01459 0.096,4.4259 0.3175,4.64697 0.204,0.20405 1.2505,0.3175 2.9288,0.3175 2.5567,0 2.6095,0.0125 2.5268,0.59531 -0.082,0.58027 -0.1767,0.59718 -3.728,0.66896 -2.8138,0.0569 -3.6738,-0.005 -3.7765,-0.27309 z m 11.3742,-0.008 c -0.072,-0.18658 -0.098,-2.53806 -0.058,-5.22552 l 0.072,-4.88628 3.9026,-0.0732 3.9026,-0.0732 v 0.66853 0.66853 h -2.7252 c -3.0576,0 -3.3602,0.14298 -3.3602,1.5875 0,1.40975 0.3318,1.5875 2.9633,1.5875 2.3072,0 2.3283,0.006 2.3283,0.66146 0,0.65636 -0.018,0.66146 -2.3719,0.66146 -2.5902,0 -2.9197,0.1941 -2.9197,1.71979 0,1.56803 0.2912,1.71979 3.3009,1.71979 2.7711,0 3.1858,0.1295 2.8893,0.90216 -0.1373,0.35771 -0.7333,0.42076 -3.9779,0.42076 -2.8602,0 -3.8491,-0.085 -3.9466,-0.33925 z m -254.52362,-22.74217 c -0.07,-0.18381 -0.0966,-14.56218 -0.0592,-31.95192 l 0.0681,-31.6177 10.08497,-0.0693 10.08498,-0.0693 2.07379,2.31822 c 1.14058,1.27502 2.7353,3.03259 3.54382,3.90571 0.80851,0.87313 4.44535,4.91854 8.08186,8.98982 3.63651,4.07127 7.32621,8.18635 8.19933,9.14461 0.87313,0.95827 2.45879,2.71715 3.52369,3.90862 1.0649,1.19148 2.03755,2.16633 2.16144,2.16633 0.2191,0 2.6723,-2.67019 10.22117,-11.12522 2.02008,-2.26258 6.74447,-7.5325 10.49867,-11.71095 l 6.8257,-7.59718 10.1076,0.0693 10.1076,0.0693 v 31.88229 31.88229 h -9.1281 -9.1282 l -0.1323,-18.63112 c -0.093,-13.06287 -0.2182,-18.65973 -0.4197,-18.72687 -0.3174,-0.10579 -1.0703,0.69095 -5.9303,6.27615 -3.5545,4.08498 -13.16392,14.96108 -16.18246,18.31569 l -1.8451,2.05052 -5.07527,-0.008 -5.07527,-0.008 -3.63284,-4.15895 c -14.06073,-16.09701 -19.71306,-22.4152 -20.05292,-22.4152 -0.34043,0 -0.40853,2.42607 -0.52362,18.65312 l -0.13229,18.65313 -9.06895,0.0696 c -7.11329,0.0546 -9.09639,-0.002 -9.19621,-0.26459 z m 107.03542,0.12881 c 0,-0.10914 0,-8.65187 -0.012,-18.98385 -0.01,-10.33198 -0.01,-19.11284 0,-19.51302 l 0.012,-0.72761 h 9.1281 9.1281 v 1.93146 c 0,1.14947 0.1285,2.06001 0.3175,2.24896 0.2418,0.24177 5.4822,0.3175 21.971,0.3175 20.7258,0 21.6955,-0.0215 22.6351,-0.50101 2.1751,-1.11014 2.7034,-2.39732 2.6956,-6.5681 0,-2.46322 -0.1083,-3.33942 -0.4943,-4.17568 -0.5651,-1.22439 -1.4345,-2.09461 -2.4937,-2.49592 -0.5122,-0.19406 -10.4502,-0.28221 -31.8161,-0.28221 h -31.0713 v -7.5484 -7.54841 l 33.4036,0.0842 33.4036,0.0842 2.0675,0.58089 c 3.5583,0.99977 5.8742,2.3145 8.2622,4.69022 2.4256,2.41321 3.7298,4.71134 4.6549,8.20209 0.4902,1.85005 0.5621,2.8665 0.5707,8.06979 0.012,7.01018 -0.2604,8.63036 -2.0772,12.37245 -2.1948,4.52059 -6.2199,7.70174 -11.5265,9.10971 -2.1993,0.58353 -2.3984,0.58868 -26.1519,0.67608 -18.355,0.0675 -23.9832,0.16269 -24.1392,0.40814 -0.1119,0.17604 -0.2052,4.69562 -0.2074,10.04351 v 9.72344 h -9.1281 c -5.0205,0 -9.127,-0.0893 -9.1256,-0.19844 z m -56.88797,-97.39713 c 0,-18.61368 -0.0112,-19.02849 -0.52916,-19.68704 -0.29104,-0.37 -0.52917,-0.95337 -0.52917,-1.29637 0,-0.34301 0.23813,-1.06794 0.52917,-1.61096 0.50866,-0.94905 0.52916,-1.4928 0.52916,-14.03457 0,-11.06236 -0.0591,-13.1254 -0.38846,-13.56085 -0.49296,-0.65176 -0.49678,-1.90823 -0.008,-2.76255 0.30458,-0.53281 0.37995,-2.24023 0.3875,-8.7785 0.008,-7.01468 0.0658,-8.17345 0.42475,-8.53242 0.65191,-0.6519 1.56871,-0.7629 2.46654,-0.29861 l 0.82225,0.4252 0.0496,7.86456 c 0.0639,10.13177 0.0461,9.72361 0.44493,10.20413 0.18821,0.22677 0.97754,0.77088 1.75407,1.20913 0.77652,0.43824 1.48549,0.91593 1.57547,1.06153 0.09,0.14559 -0.14655,0.87678 -0.52562,1.62486 l -0.68924,1.36013 -1.13968,-0.17091 c -0.91286,-0.13689 -1.17251,-0.0854 -1.30463,0.25893 -0.23686,0.61726 -0.19629,24.2693 0.0423,24.64446 0.10951,0.17221 1.06019,0.75606 2.11261,1.29743 1.30692,0.67228 1.9135,1.13602 1.9135,1.46289 0,0.53724 -1.02787,3.40885 -1.22017,3.40885 -0.0681,0 -0.6095,-0.24777 -1.2031,-0.5506 -0.80318,-0.40975 -1.15582,-0.47401 -1.37852,-0.25118 -0.37069,0.37091 -0.37031,0.35228 -0.40395,19.78564 l -0.0276,15.94114 h -1.85208 -1.85209 z m 19.71147,18.72371 c 1.0186,-0.12124 5.424,-0.58028 9.7896,-1.02008 4.3656,-0.4398 10.9736,-1.1058 14.6844,-1.48001 11.4618,-1.15583 14.8646,-1.44043 17.2357,-1.44155 1.8405,-8.7e-4 2.3181,-0.0828 2.4474,-0.4196 0.088,-0.23018 0.1606,-15.94643 0.1606,-34.925 0,-34.1537 0.01,-34.51189 0.5292,-35.03565 0.291,-0.29104 0.8703,-0.52916 1.2872,-0.52916 0.9386,0 2.1524,0.91639 2.1524,1.6251 0,0.37231 0.1484,0.5034 0.5025,0.44382 0.2763,-0.0465 6.9141,-6.21581 14.7505,-13.70957 7.8364,-7.49376 15.4981,-14.80134 17.0261,-16.23907 1.528,-1.43773 2.9865,-2.85036 3.2412,-3.13919 0.4199,-0.47627 0.463,-1.29614 0.463,-8.81099 v -8.28586 l 0.6971,-0.54837 c 0.8845,-0.69574 1.69,-0.69574 2.5745,0 l 0.6971,0.54837 v 8.11673 c 0,4.46421 0.091,8.24856 0.1984,8.40968 0.1069,0.16113 1.0928,1.05409 2.1907,1.98438 1.098,0.93028 2.8244,2.42582 3.8365,3.3234 1.0121,0.89759 3.0308,2.67077 4.486,3.94039 1.4552,1.26963 5.913,5.17868 9.9063,8.68678 7.3969,6.49823 9.6857,8.50324 15.9331,13.95747 1.9411,1.69466 4.6009,4.04518 5.9106,5.22339 3.6043,3.24253 3.4107,3.54134 3.5822,-5.52646 0.079,-4.14735 0.1678,-7.56116 0.1984,-7.58626 0.031,-0.0251 0.4692,-0.18204 0.9743,-0.34876 0.7199,-0.23756 1.0776,-0.22693 1.6537,0.0491 l 0.7351,0.35228 0.069,12.23347 c 0.04,7.14234 -0.031,12.23346 -0.1698,12.23346 -0.2318,0 -2.6652,-2.06997 -3.4688,-2.95073 -0.4325,-0.47398 -8.3659,-7.44541 -10.1913,-8.95552 -0.6156,-0.50932 -4.4271,-3.84307 -8.47,-7.40833 -4.0429,-3.56526 -7.9103,-6.95854 -8.5944,-7.54063 -0.6841,-0.58208 -2.466,-2.12989 -3.9599,-3.43958 -2.8085,-2.46226 -5.0579,-4.41861 -7.8345,-6.81373 -0.8852,-0.76359 -2.5906,-2.2586 -3.7897,-3.32224 -1.2597,-1.11733 -2.3676,-1.89781 -2.6239,-1.84846 -0.412,0.0793 -0.4416,2.11205 -0.4164,28.52451 0.019,20.00715 0.1186,29.12607 0.3355,30.75613 0.2697,2.02632 0.2551,2.39845 -0.1167,2.96586 -0.3821,0.58326 -0.4175,2.54103 -0.3496,19.37879 l 0.075,18.72997 -45.0974,0.0311 c -25.1722,0.0173 -44.2791,-0.0663 -43.2453,-0.18938 z m 83.8513,-3.83874 c 0.6221,-0.23873 0.6197,-5.59962 0,-5.83844 -0.2317,-0.0889 -1.5116,0.20349 -2.8443,0.6497 -1.3327,0.44622 -4.2091,1.36369 -6.3919,2.03883 -6.8093,2.1061 -7.9664,2.57107 -7.6544,3.07591 0.1605,0.25965 16.226,0.33003 16.8932,0.074 z m -23.7909,-1.00324 c 1.1642,-0.34198 4.0217,-1.18678 6.35,-1.87733 2.3283,-0.69056 5.0072,-1.4645 5.9531,-1.71986 4.5017,-1.21532 11.2795,-3.2677 11.5756,-3.50515 0.2567,-0.20595 0.3307,-3.27101 0.3307,-13.70458 0,-10.51468 -0.072,-13.46394 -0.3307,-13.55251 -0.3502,-0.11984 -9.6435,3.01896 -22.1589,7.48409 -4.1473,1.47966 -8.7151,3.0922 -10.1505,3.58343 -1.4354,0.49124 -2.7749,1.0301 -2.9766,1.19748 -0.3018,0.25047 -0.3666,2.25718 -0.3666,11.34032 0,6.0698 0.079,11.11538 0.1763,11.2124 0.097,0.097 2.2699,0.17348 4.8287,0.16993 4.0946,-0.006 4.906,-0.081 6.7689,-0.62822 z m -4.6302,-28.8546 c 3.1287,-1.11857 10.7768,-3.8032 16.9959,-5.96586 6.219,-2.16265 11.428,-4.00668 11.5755,-4.09784 0.1752,-0.10826 0.2682,-4.56833 0.2682,-12.85844 0,-11.07232 -0.051,-12.71225 -0.3993,-12.84591 -0.2196,-0.0843 -1.9162,0.5356 -3.7703,1.37748 -1.8541,0.84188 -4.7403,2.15198 -6.4137,2.91132 -1.6735,0.75934 -4.8882,2.23391 -7.1438,3.27682 -5.3448,2.47128 -6.017,2.74125 -6.4301,2.58274 -0.5426,-0.20825 -1.6175,-2.43088 -1.4219,-2.94047 0.1852,-0.48276 2.355,-1.55709 12.6145,-6.24595 7.2805,-3.32735 11.1921,-5.13864 12.1708,-5.6358 l 0.6615,-0.33598 v -12.6678 c 0,-9.22207 -0.082,-12.69507 -0.3006,-12.76801 -0.3121,-0.10402 -2.3032,1.70546 -10.9747,9.97332 -9.153,8.72693 -22.2936,21.27597 -23.449,22.39328 l -1.1267,1.08967 v 4.08293 c 0,2.67092 0.1029,4.18585 0.2975,4.38051 0.3969,0.39684 0.4071,3.49346 0.014,4.22264 -0.3511,0.65127 -0.4622,21.80511 -0.1163,22.15097 0.2816,0.28167 0.6635,0.16738 6.9485,-2.07962 z"
         id="path1" /></g></g></svg>
